<svg xmlns="http://www.w3.org/2000/svg" xmlns:xlink="http://www.w3.org/1999/xlink" width="2000" zoomAndPan="magnify" viewBox="0 0 1500 1499.999933" height="2000" preserveAspectRatio="xMidYMid meet" version="1.0"><defs><clipPath id="0aa6facd15"><path d="M 419 265.910156 L 1082 265.910156 L 1082 549 L 419 549 Z M 419 265.910156 " clip-rule="nonzero"/></clipPath><clipPath id="c034b47b24"><path d="M 0 1162 L 1500 1162 L 1500 1234.160156 L 0 1234.160156 Z M 0 1162 " clip-rule="nonzero"/></clipPath></defs><path fill="#086b60" d="M 387.96875 875.449219 L 750.375 1080.761719 L 1110.902344 876.578125 C 1112.03125 870.925781 1112.785156 864.898438 1112.785156 859.25 C 1112.785156 763.5625 950.417969 686.332031 750.375 686.332031 C 550.335938 686.332031 387.96875 763.5625 387.96875 859.25 Z M 387.96875 875.449219 " fill-opacity="1" fill-rule="nonzero"/><g clip-path="url(#0aa6facd15)"><path fill="#086b60" d="M 419.613281 305.839844 L 577.835938 305.839844 L 577.835938 394.75 L 923.292969 394.75 L 923.292969 305.839844 L 1002.027344 305.839844 L 1002.027344 485.539062 C 997.507812 488.550781 994.492188 493.828125 994.492188 499.855469 L 994.492188 548.453125 L 1029.90625 548.453125 L 1029.90625 499.855469 C 1029.90625 493.828125 1026.890625 488.550781 1022.371094 485.539062 L 1022.371094 305.839844 L 1081.894531 305.839844 L 1081.894531 265.910156 L 419.613281 265.910156 Z M 419.613281 305.839844 " fill-opacity="1" fill-rule="nonzero"/></g><path fill="#086b60" d="M 577.835938 492.695312 C 577.835938 588.007812 655.066406 665.613281 750.753906 665.613281 C 846.066406 665.613281 923.667969 588.382812 923.667969 492.695312 L 923.667969 421.496094 L 578.214844 421.496094 L 578.214844 492.695312 Z M 577.835938 492.695312 " fill-opacity="1" fill-rule="nonzero"/><path fill="#086b60" d="M 11.621094 1132.375 C 11.621094 1138.023438 16.140625 1142.542969 21.792969 1142.542969 L 1478.960938 1142.542969 C 1484.609375 1142.542969 1489.132812 1138.023438 1489.132812 1132.375 C 1489.132812 1126.722656 1484.609375 1122.203125 1478.960938 1122.203125 L 1037.0625 1122.203125 L 1480.089844 1090.558594 C 1485.742188 1090.179688 1489.886719 1085.28125 1489.507812 1079.632812 C 1489.132812 1073.980469 1484.234375 1069.835938 1478.582031 1070.214844 L 1038.945312 1101.859375 L 1461.253906 1041.207031 C 1466.90625 1040.453125 1470.671875 1035.179688 1469.917969 1029.527344 C 1469.164062 1023.875 1463.890625 1020.109375 1458.242188 1020.863281 L 1040.832031 1080.761719 L 1438.273438 994.871094 C 1443.925781 993.738281 1447.316406 988.089844 1446.183594 982.8125 C 1445.054688 977.164062 1439.402344 973.773438 1434.128906 974.902344 L 1046.480469 1058.535156 L 1407.382812 954.9375 C 1412.65625 953.429688 1416.046875 947.777344 1414.539062 942.128906 C 1413.035156 936.855469 1407.382812 933.464844 1401.730469 934.96875 L 1051.378906 1035.554688 L 1370.085938 921.03125 C 1375.359375 919.148438 1378.375 913.121094 1376.113281 907.847656 C 1374.230469 902.570312 1368.203125 899.558594 1362.929688 901.820312 L 1059.289062 1010.691406 L 1327.140625 895.414062 C 1332.414062 893.152344 1334.675781 887.125 1332.414062 881.851562 C 1330.15625 876.578125 1324.125 874.316406 1318.851562 876.578125 L 750.375 1121.449219 L 181.902344 876.578125 C 176.625 874.316406 170.597656 876.578125 168.339844 881.851562 C 166.078125 887.125 168.339844 893.152344 173.613281 895.414062 L 441.464844 1010.691406 L 137.824219 901.820312 C 132.550781 899.933594 126.523438 902.570312 124.640625 907.847656 C 122.753906 913.121094 125.390625 919.148438 130.667969 921.03125 L 449.375 1035.554688 L 99.023438 934.96875 C 93.371094 933.464844 87.71875 936.476562 86.214844 942.128906 C 84.707031 947.402344 87.71875 953.429688 93.371094 954.9375 L 454.273438 1058.535156 L 67.375 974.527344 C 61.726562 973.394531 56.453125 976.785156 55.320312 982.4375 C 54.191406 988.089844 57.582031 993.363281 63.234375 994.492188 L 460.300781 1080.386719 L 42.890625 1020.484375 C 37.238281 1019.734375 31.964844 1023.5 31.210938 1029.152344 C 30.457031 1034.800781 34.226562 1040.074219 39.875 1040.828125 L 462.183594 1101.480469 L 22.546875 1069.835938 C 16.894531 1069.460938 12 1073.605469 11.621094 1079.253906 C 11.246094 1084.90625 15.390625 1089.804688 21.039062 1090.179688 L 464.066406 1121.824219 L 21.792969 1121.824219 C 16.140625 1122.203125 11.621094 1126.722656 11.621094 1132.375 Z M 11.621094 1132.375 " fill-opacity="1" fill-rule="nonzero"/><g clip-path="url(#c034b47b24)"><path fill="#086b60" d="M 1479.335938 1162.886719 L 21.417969 1162.886719 C 10.113281 1162.886719 0.695312 1171.929688 0.695312 1183.609375 C 0.695312 1195.285156 9.738281 1204.328125 21.417969 1204.328125 L 685.203125 1204.328125 C 701.027344 1222.410156 724.007812 1234.089844 750 1234.089844 C 775.992188 1234.089844 799.351562 1222.410156 814.796875 1204.328125 L 1478.582031 1204.328125 C 1489.886719 1204.328125 1499.304688 1195.285156 1499.304688 1183.609375 C 1499.304688 1171.929688 1491.015625 1162.886719 1479.335938 1162.886719 Z M 1479.335938 1162.886719 " fill-opacity="1" fill-rule="nonzero"/></g></svg>