<svg xmlns="http://www.w3.org/2000/svg" viewBox="0 0 500 500"><g id="freepik--Floor--inject-17"><ellipse id="freepik--floor--inject-17" cx="250" cy="348.39" rx="236.85" ry="136.75" style="fill:#f5f5f5"></ellipse></g><g id="freepik--Shadows--inject-17"><polygon id="freepik--Shadow--inject-17" points="397.32 257.6 317.27 303.81 262.24 272.04 342.29 225.82 397.32 257.6" style="fill:#e0e0e0"></polygon><ellipse id="freepik--shadow--inject-17" cx="398.75" cy="390.06" rx="61.33" ry="35.41" style="fill:#e0e0e0"></ellipse><path id="freepik--shadow--inject-17" d="M55,429.81l-2.9-1.67c-2-1.13-2-3,0-4.11L268.6,299a7.82,7.82,0,0,1,7.11,0l2.9,1.67c2,1.14,2,3,0,4.11L62.1,429.81A7.84,7.84,0,0,1,55,429.81Z" style="fill:#e0e0e0"></path></g><g id="freepik--Printer--inject-17"><g id="freepik--Cabinet--inject-17"><polygon points="314.16 288.32 316.28 298.86 318.35 300.05 320.39 298.87 322.53 288.32 318.35 285.9 314.16 288.32" style="fill:#455a64"></polygon><polygon points="318.35 300.05 318.35 290.74 314.16 288.32 316.28 298.86 318.35 300.05" style="fill:#37474f"></polygon><polygon points="314.16 288.32 315.53 295.12 318.35 296.75 321.15 295.13 322.53 288.32 318.35 285.9 314.16 288.32" style="opacity:0.2"></polygon><polygon points="380.72 249.89 382.85 260.43 384.91 261.62 386.95 260.44 389.1 249.89 384.91 247.48 380.72 249.89" style="fill:#455a64"></polygon><polygon points="384.91 261.62 384.91 252.31 380.72 249.89 382.85 260.43 384.91 261.62" style="fill:#37474f"></polygon><polygon points="380.72 249.89 382.09 256.69 384.91 258.32 387.71 256.7 389.1 249.89 384.91 247.48 380.72 249.89" style="opacity:0.2"></polygon><polygon points="268.42 261.92 270.54 272.45 272.61 273.64 274.65 272.46 276.79 261.92 272.61 259.5 268.42 261.92" style="fill:#455a64"></polygon><polygon points="272.61 273.64 272.61 264.33 268.42 261.92 270.54 272.45 272.61 273.64" style="fill:#37474f"></polygon><polygon points="268.42 261.92 269.79 268.72 272.61 270.34 275.41 268.72 276.79 261.92 272.61 259.5 268.42 261.92" style="opacity:0.2"></polygon><g id="freepik--cabinet--inject-17"><polygon points="318.35 293.29 268.03 264.24 268.03 188.98 318.35 218.03 318.35 293.29" style="fill:#263238"></polygon><polygon points="318.35 218.03 391.53 175.78 391.53 251.04 318.35 293.29 318.35 218.03" style="fill:#37474f"></polygon><polygon points="391.53 175.78 318.35 218.03 268.03 188.98 341.21 146.73 391.53 175.78" style="fill:#455a64"></polygon><polygon points="325.07 254.76 384.8 220.27 384.8 244.28 386.04 244.99 326.31 279.48 325.07 278.76 325.07 254.76" style="fill:#263238"></polygon><polygon points="326.31 255.47 386.04 220.99 386.04 244.99 326.31 279.48 326.31 255.47" style="fill:#455a64"></polygon><path d="M353.89,245.87l9.15-5.29c1.18-.68,2.15-.37,2.15.7a4.33,4.33,0,0,1-2.15,3.19l-9.16,5.28c-1.18.69-2.15.37-2.15-.7A4.3,4.3,0,0,1,353.89,245.87Z" style="fill:#263238"></path><polygon points="325.07 222.99 384.8 188.51 384.8 212.51 386.04 213.23 326.31 247.71 325.07 247 325.07 222.99" style="fill:#263238"></polygon><polygon points="326.31 223.71 386.04 189.22 386.04 213.23 326.31 247.71 326.31 223.71" style="fill:#455a64"></polygon><path d="M353.89,214.1l9.15-5.28c1.18-.69,2.15-.37,2.15.7A4.31,4.31,0,0,1,363,212.7L353.88,218c-1.18.68-2.15.37-2.15-.7A4.32,4.32,0,0,1,353.89,214.1Z" style="fill:#263238"></path></g></g><g id="freepik--printer--inject-17"><polygon points="278.37 186.99 318.19 209.98 380.13 174.22 340.31 151.23 278.37 186.99" style="fill:#263238"></polygon><path d="M318.19,210l-39.82-23v2a2.6,2.6,0,0,0,1.18,2L317,212.69a2.37,2.37,0,0,0,2.36,0h0l-1.18-.68Z" style="fill:#263238"></path><path d="M380.13,174.22v2a2.6,2.6,0,0,1-1.18,2l-59.58,34.4c-.65.38-1.18.07-1.18-.68v-2Z" style="fill:#37474f"></path><path d="M378.93,173.19a2.72,2.72,0,0,0,1.23-2.14l0-6.58-39.34-22.72-10.41,6,0,8,39.34,22.72Z" style="fill:#BA68C8"></path><path d="M378.93,173.19a2.72,2.72,0,0,0,1.23-2.14l0-6.58-39.34-22.72-10.41,6,0,8,39.34,22.72Z" style="fill:#fff;opacity:0.7000000000000001"></path><polygon points="330.38 147.76 330.41 155.78 369.75 178.49 369.72 170.48 330.38 147.76" style="fill:#BA68C8"></polygon><polygon points="330.38 147.76 330.41 155.78 369.75 178.49 369.72 170.48 330.38 147.76" style="opacity:0.30000000000000004"></polygon><polygon points="330.38 147.76 340.79 141.75 380.13 164.47 369.72 170.48 330.38 147.76" style="fill:#BA68C8"></polygon><polygon points="330.38 147.76 340.79 141.75 380.13 164.47 369.72 170.48 330.38 147.76" style="opacity:0.15"></polygon><polygon points="282.96 187.18 308.42 201.87 308.42 196.53 282.96 181.83 282.96 187.18" style="fill:#BA68C8"></polygon><polygon points="282.96 187.18 308.42 201.87 308.42 196.53 282.96 181.83 282.96 187.18" style="opacity:0.15"></polygon><path d="M318.91,207.84l48.45-28a2.72,2.72,0,0,0,1.23-2.13v-6.6l-39.34-22.71-50.91,29.39v6.6a2.72,2.72,0,0,0,1.23,2.13l3.39,2v-4l25.46,14.7v4l8,4.63A2.69,2.69,0,0,0,318.91,207.84Z" style="fill:#BA68C8"></path><path d="M318.91,207.84l48.45-28a2.72,2.72,0,0,0,1.23-2.13v-6.6l-39.34-22.71-50.91,29.39v6.6a2.72,2.72,0,0,0,1.23,2.13l3.39,2v-4l25.46,14.7v4l8,4.63A2.69,2.69,0,0,0,318.91,207.84Z" style="fill:#fff;opacity:0.5"></path><polygon points="317.68 200.54 368.59 171.14 329.25 148.43 278.34 177.82 317.68 200.54" style="fill:#BA68C8"></polygon><polygon points="317.68 200.54 368.59 171.14 329.25 148.43 278.34 177.82 317.68 200.54" style="opacity:0.15"></polygon><path d="M368.59,171.14v8l-49.68,28.68c-.68.39-1.23.07-1.23-.71v-6.59Z" style="fill:#BA68C8"></path><path d="M368.59,171.14v8l-49.68,28.68c-.68.39-1.23.07-1.23-.71v-6.59Z" style="fill:#fff;opacity:0.7000000000000001"></path><polygon points="282.96 188.51 284.12 187.84 284.12 185.17 282.96 184.5 282.96 188.51" style="fill:#BA68C8"></polygon><polygon points="282.96 188.51 284.12 187.84 284.12 185.17 282.96 184.5 282.96 188.51" style="opacity:0.35000000000000003"></polygon><path d="M323.46,199.87c.64-.37,1.16-.07,1.16.67a2.55,2.55,0,0,1-1.16,2c-.63.37-1.15.07-1.15-.67A2.58,2.58,0,0,1,323.46,199.87Z" style="fill:#455a64"></path><path d="M364,176.49v1.33c0,.74-1.1,2-2.46,2.76l-29.78,17.2c-1.37.78-2.47.82-2.47.09v-1.34Z" style="fill:#455a64"></path><path d="M317.68,194.69v4L278.34,176V158.61l27.76,16A23.15,23.15,0,0,1,317.68,194.69Z" style="fill:#37474f"></path><path d="M368.59,138.57l-27.77-16-6.94,4-55.55,32.06,27.77,16a23.17,23.17,0,0,1,11.58,20.05v4l55.54-32.07h0l6.94-4v-4A23.14,23.14,0,0,0,368.59,138.57Z" style="fill:#455a64"></path><path d="M370.9,164a23.16,23.16,0,0,0-11.57-20.05l-27.77-16-41.65,24.05,27.76,16a23.15,23.15,0,0,1,11.58,20Z" style="fill:#37474f"></path><path d="M326.93,149.26c-2.55,1.47-2.55,3.87,0,5.34a10.21,10.21,0,0,0,9.26,0c2.56-1.47,2.56-3.87,0-5.34A10.21,10.21,0,0,0,326.93,149.26Z" style="fill:#455a64"></path><polygon points="326.28 188.08 326.28 190.46 373.85 163 373.85 160.62 326.28 188.08" style="fill:#263238"></polygon><polygon points="289.45 158.17 341.08 128.36 343.61 129.82 291.98 159.63 289.45 158.17" style="fill:#263238"></polygon><polygon points="290.65 158.88 283.23 126.07 334.86 96.26 342.28 129.06 290.65 158.88" style="fill:#37474f"></polygon><polygon points="283.23 126.07 282.03 125.37 289.45 158.17 290.65 158.88 283.23 126.07" style="fill:#263238"></polygon><polygon points="282.03 125.37 283.23 126.07 334.86 96.26 333.67 95.56 282.03 125.37" style="fill:#455a64"></polygon><polygon points="292.14 158.01 283.18 118.34 330.47 91.04 339.43 130.71 292.14 158.01" style="fill:#e0e0e0"></polygon><polygon points="293.46 158.78 284.49 119.11 331.78 91.81 340.75 131.48 293.46 158.78" style="fill:#fafafa"></polygon><polygon points="284.49 119.11 283.18 118.34 292.45 159.37 293.46 158.78 284.49 119.11" style="fill:#e0e0e0"></polygon><polygon points="283.18 118.34 284.49 119.11 331.78 91.81 330.47 91.04 283.18 118.34" style="fill:#ebebeb"></polygon><path d="M311.71,168.91v-.4a.51.51,0,0,0-.31-.43l-.84-.49a1.63,1.63,0,0,0-1.49,0l-3.18,1.83a.53.53,0,0,0-.31.44h0v.41h0a.56.56,0,0,0,.31.42l.84.49a1.65,1.65,0,0,0,1.5,0l3.17-1.84a.5.5,0,0,0,.31-.42h0Z" style="fill:#263238"></path><path d="M306.73,170.77l-.84-.48a.46.46,0,0,1,0-.87l3.18-1.83a1.63,1.63,0,0,1,1.49,0l.84.49c.42.23.42.62,0,.86l-3.17,1.83A1.65,1.65,0,0,1,306.73,170.77Z" style="fill:#37474f"></path><path d="M307.53,170.43a1.29,1.29,0,0,1-.64-.15.5.5,0,0,1-.27-.31.37.37,0,0,1,0-.29.08.08,0,0,1,.1,0,.06.06,0,0,1,0,.09.2.2,0,0,0,0,.18.36.36,0,0,0,.21.23,1.25,1.25,0,0,0,1.13,0c.14-.08.22-.18.22-.28a.36.36,0,0,0-.22-.29,1.21,1.21,0,0,0-.83-.11.08.08,0,0,1-.08-.06.07.07,0,0,1,.05-.08,1.44,1.44,0,0,1,.93.13.43.43,0,0,1,0,.81A1.28,1.28,0,0,1,307.53,170.43Z" style="fill:#fafafa"></path><path d="M307.56,170h0l-.78-.45a.06.06,0,0,1,0-.09.07.07,0,0,1,.1,0l.78.45a.08.08,0,0,1,0,.1A.05.05,0,0,1,307.56,170Z" style="fill:#fafafa"></path><path d="M302.56,169.88l7-4c.21-.12.21-.32,0-.44l-4-2.34a.87.87,0,0,0-.77,0l-7,4a.23.23,0,0,0,0,.44l4,2.34A.89.89,0,0,0,302.56,169.88Z" style="fill:#263238"></path><path d="M305.48,163.63a.84.84,0,0,0-.77,0l-6.86,4,3.93,2.27a.89.89,0,0,0,.78,0l6.86-4Z" style="fill:#BA68C8"></path><g style="opacity:0.4"><path d="M300.15,167.79a1.29,1.29,0,0,1,1.22,0c.36.22.35.51,0,.73l-.34.2.45.26-.3.17-1.63-.94Zm.71.8.27-.15c.27-.16.24-.33-.07-.52a.84.84,0,0,0-.85,0l-.27.16Z"></path><path d="M301.06,167.27l.67-.39a1.13,1.13,0,0,1,1.06-.08.3.3,0,0,1,.07.53,1.18,1.18,0,0,1,.32,0l.8.06-.18.24-.77-.09a.84.84,0,0,0-.61.07l-.1.05.67.38-.3.18Zm.43-.1.71.41.34-.2c.19-.11.17-.27-.05-.4a.62.62,0,0,0-.67,0Z"></path><path d="M302.93,166.19l1.63.94-.3.17-1.63-.94Z"></path><path d="M303.51,165.85l2,.19h.08l-.49-.29-.75-.38.21-.12,1.63.94-.21.12-2-.2h-.11l.54.31.71.41-.2.11-.68-.42-.93-.53Z"></path><path d="M306.15,164.33l.17.09c-.11.06-.42.2-.58.29l1.51.87-.31.17-1.5-.87c-.15.09-.39.27-.5.33l-.16-.09Z"></path></g></g></g><g id="freepik--Window--inject-17"><g id="freepik--archive-window--inject-17"><path d="M280.71,66.15l-5.26-2.24L49.32,194.53V405.25A3.93,3.93,0,0,0,51,408.87h0l5.25,3.06h0a4,4,0,0,0,4-.39L275.1,287.41c3.1-1.79,5.61-6.14,5.61-10.54Z" style="fill:#e6e6e6"></path><path d="M57.57,411.74a4.57,4.57,0,0,0,2.19-.68l214.9-124.13c2.92-1.69,5.29-5.8,5.29-10V67.35L55.12,198V408.38C55.12,410.48,56,411.74,57.57,411.74Z" style="fill:#fafafa"></path><path d="M279.41,68.4V276.87c0,3.93-2.28,7.87-5,9.42L59.55,410.42a3.91,3.91,0,0,1-1.86.6c-1.64,0-1.81-1.9-1.81-2.71v-210L279.41,69.22m1.3-2.25L54.58,197.59V408.31c0,2.53,1.27,4,3.11,4a5.06,5.06,0,0,0,2.5-.76L275.1,287.41c3.1-1.79,5.61-6.14,5.61-10.54V67Z" style="fill:#e0e0e0"></path><polygon points="54.58 197.59 54.58 221.06 280.71 90.44 280.71 66.97 54.58 197.59" style="fill:#BA68C8"></polygon><polygon points="54.58 197.59 54.58 221.06 280.71 90.44 280.71 66.97 54.58 197.59" style="fill:#fff;opacity:0.5"></polygon><path d="M196.09,125.39v5.23c0,1.07.76,1.5,1.68,1l67.15-38.8V83.67l-67.15,38.8A3.76,3.76,0,0,0,196.09,125.39Z" style="fill:#fafafa"></path><path d="M273.77,78.57c.93-.54,1.68-.11,1.68,1v5.23a3.7,3.7,0,0,1-1.68,2.91l-8.85,5.11V83.67Z" style="fill:#455a64"></path><path d="M273.11,85.74l-1-.31a5.51,5.51,0,0,0,.15-1.27,2.31,2.31,0,0,0-.9-2.11,1.4,1.4,0,0,0-1.43.07,5,5,0,0,0-2,4.1,2.33,2.33,0,0,0,.89,2.11,1.29,1.29,0,0,0,.63.17,1.6,1.6,0,0,0,.81-.24,4.14,4.14,0,0,0,1.6-2.13l1,.3a.23.23,0,0,0,.11,0,.36.36,0,0,0,.11-.71ZM270,87.63a.72.72,0,0,1-.71.07,1.72,1.72,0,0,1-.53-1.48,4.41,4.41,0,0,1,1.6-3.47.94.94,0,0,1,.45-.14.59.59,0,0,1,.26.07,1.72,1.72,0,0,1,.53,1.48A4.42,4.42,0,0,1,270,87.63Z" style="fill:#fafafa"></path><path d="M273.86,55.16c-1-.62-2.44-.55-4,.36L54.93,179.65a12.4,12.4,0,0,0-5.61,9.72v5.16l5.26,3.06L280.71,67V61.82a4,4,0,0,0-1.62-3.62C278.14,57.65,274.77,55.72,273.86,55.16Z" style="fill:#263238"></path><path d="M54.58,192.43a12.4,12.4,0,0,1,5.61-9.72L275.1,58.58c3.1-1.79,5.61-.34,5.61,3.24V67L54.58,197.59Z" style="fill:#37474f"></path><path d="M279.14,58.24c-1-.64-2.45-.57-4,.35L60.2,182.71a11.46,11.46,0,0,0-4,4.19L51,183.85a11.52,11.52,0,0,1,4-4.2L269.84,55.52c1.58-.91,3-1,4-.35s4.28,2.48,5.23,3C279.1,58.21,279.13,58.22,279.14,58.24Z" style="fill:#455a64"></path><path d="M260.45,70.9a4.29,4.29,0,0,0-1.95,3.37c0,1.24.87,1.75,1.95,1.12A4.29,4.29,0,0,0,262.4,72C262.4,70.78,261.53,70.27,260.45,70.9Z" style="fill:#fafafa"></path><path d="M267.27,67a4.29,4.29,0,0,0-1.95,3.37c0,1.25.87,1.75,1.95,1.13a4.32,4.32,0,0,0,2-3.38C269.22,66.85,268.34,66.35,267.27,67Z" style="fill:#fafafa"></path><path d="M274.09,63a4.29,4.29,0,0,0-1.95,3.38c0,1.24.87,1.74,1.95,1.12A4.31,4.31,0,0,0,276,64.17C276,62.92,275.16,62.42,274.09,63Z" style="fill:#fafafa"></path><path d="M60.52,410.61c-2.92,1.68-5.29.31-5.29-3.05V221.43l51.34-29.65V384Z" style="fill:#f5f5f5"></path><path d="M55.88,221.8l50-28.89V383.65l-45.08,26c-2.69,1.55-5,.24-5-2.87v-185m-1.3-.74V408.31c0,3.57,2.51,5,5.61,3.24l47-27.15V190.66l-52.64,30.4Z" style="fill:#e0e0e0"></path><path d="M73.57,228.91l25.18-14.55c.93-.54,1.68-.1,1.68,1v2.19a3.72,3.72,0,0,1-1.68,2.92L73.57,235c-.93.54-1.68.1-1.68-1v-2.19A3.73,3.73,0,0,1,73.57,228.91Z" style="fill:#e0e0e0"></path><path d="M66.63,234.87v2.19A3.71,3.71,0,0,1,64.94,240l-1.89,1.1c-.93.54-1.69.1-1.69-1v-2.19A3.73,3.73,0,0,1,63.05,235l1.89-1.09C65.87,233.36,66.63,233.8,66.63,234.87Z" style="fill:#BA68C8"></path><path d="M73.57,241l25.18-14.55c.93-.54,1.68-.1,1.68,1v2.19a3.73,3.73,0,0,1-1.68,2.92L73.57,247.1c-.93.54-1.68.1-1.68-1v-2.19A3.73,3.73,0,0,1,73.57,241Z" style="fill:#e0e0e0"></path><path d="M66.63,247v2.19a3.71,3.71,0,0,1-1.69,2.91l-1.89,1.1c-.93.54-1.69.1-1.69-1V250a3.73,3.73,0,0,1,1.69-2.92L64.94,246C65.87,245.47,66.63,245.9,66.63,247Z" style="fill:#BA68C8"></path><path d="M73.57,253.13l25.18-14.55c.93-.54,1.68-.1,1.68,1v2.19a3.73,3.73,0,0,1-1.68,2.92L73.57,259.21c-.93.54-1.68.1-1.68-1v-2.19A3.73,3.73,0,0,1,73.57,253.13Z" style="fill:#e0e0e0"></path><path d="M66.63,259.09v2.19a3.71,3.71,0,0,1-1.69,2.91l-1.89,1.1c-.93.53-1.69.1-1.69-1v-2.19a3.73,3.73,0,0,1,1.69-2.92l1.89-1.09C65.87,257.58,66.63,258,66.63,259.09Z" style="fill:#BA68C8"></path><path d="M73.57,293.29l25.18-14.56c.93-.53,1.68-.1,1.68,1v2.19a3.72,3.72,0,0,1-1.68,2.92L73.57,299.36c-.93.54-1.68.11-1.68-1V296.2A3.7,3.7,0,0,1,73.57,293.29Z" style="fill:#e0e0e0"></path><path d="M66.63,299.24v2.19a3.75,3.75,0,0,1-1.69,2.92l-1.89,1.09c-.93.54-1.69.1-1.69-1v-2.19a3.75,3.75,0,0,1,1.69-2.92l1.89-1.09C65.87,297.73,66.63,298.17,66.63,299.24Z" style="fill:#BA68C8"></path><path d="M73.57,304l25.18-14.55c.93-.54,1.68-.1,1.68,1v2.19a3.73,3.73,0,0,1-1.68,2.92L73.57,310.09c-.93.54-1.68.1-1.68-1v-2.19A3.72,3.72,0,0,1,73.57,304Z" style="fill:#e0e0e0"></path><path d="M66.63,310v2.19a3.73,3.73,0,0,1-1.69,2.91l-1.89,1.1c-.93.53-1.69.1-1.69-1V313a3.73,3.73,0,0,1,1.69-2.91l1.89-1.1C65.87,308.46,66.63,308.89,66.63,310Z" style="fill:#BA68C8"></path><path d="M73.57,314.74l25.18-14.56c.93-.53,1.68-.1,1.68,1v2.19a3.72,3.72,0,0,1-1.68,2.92L73.57,320.81c-.93.54-1.68.11-1.68-1v-2.19A3.7,3.7,0,0,1,73.57,314.74Z" style="fill:#e0e0e0"></path><path d="M66.63,320.69v2.19a3.75,3.75,0,0,1-1.69,2.92l-1.89,1.09c-.93.54-1.69.1-1.69-1v-2.19a3.75,3.75,0,0,1,1.69-2.92l1.89-1.09C65.87,319.18,66.63,319.62,66.63,320.69Z" style="fill:#BA68C8"></path><polygon points="71.89 266.35 71.89 270.13 75.16 266.35 71.89 266.35" style="fill:#BA68C8"></polygon><path d="M77.15,265.57c0,.7.51,1,1.13.62l21-12.11a2.46,2.46,0,0,0,1.12-1.93c0-.71-.5-1-1.12-.64l-21,12.14A2.47,2.47,0,0,0,77.15,265.57Z" style="fill:#e0e0e0"></path><polygon points="71.89 272.43 71.89 276.2 75.16 272.43 71.89 272.43" style="fill:#BA68C8"></polygon><path d="M77.15,271.65c0,.7.51,1,1.13.62l21-12.11a2.48,2.48,0,0,0,1.12-1.94c0-.71-.5-1-1.12-.64l-21,12.15A2.47,2.47,0,0,0,77.15,271.65Z" style="fill:#e0e0e0"></path><polygon points="71.89 278.5 71.89 282.28 75.16 278.5 71.89 278.5" style="fill:#BA68C8"></polygon><path d="M77.15,277.72c0,.7.51,1,1.13.62l21-12.11a2.46,2.46,0,0,0,1.12-1.93c0-.71-.5-1-1.12-.64l-21,12.14A2.47,2.47,0,0,0,77.15,277.72Z" style="fill:#e0e0e0"></path><polygon points="71.89 284.57 71.89 288.35 75.16 284.57 71.89 284.57" style="fill:#BA68C8"></polygon><path d="M77.15,283.8c0,.7.51,1,1.13.62l21-12.11a2.48,2.48,0,0,0,1.12-1.94c0-.71-.5-1-1.12-.64l-21,12.15A2.47,2.47,0,0,0,77.15,283.8Z" style="fill:#e0e0e0"></path><polygon points="54.58 197.59 49.32 194.53 49.32 218.02 54.58 221.06 54.58 197.59" style="fill:#BA68C8"></polygon><polygon points="54.58 197.59 49.32 194.53 49.32 218.02 54.58 221.06 54.58 197.59" style="opacity:0.1"></polygon><polygon points="54.58 197.59 49.32 194.53 49.32 218.02 54.58 221.06 54.58 197.59" style="fill:#fff;opacity:0.2"></polygon></g></g><g id="freepik--Files--inject-17"><g id="freepik--RTF--inject-17"><path d="M264.6,212.15v57.16a2.7,2.7,0,0,1-1.23,2.13L222,295.32a.87.87,0,0,1-.87.08l-2.3-1.33a.86.86,0,0,1-.36-.8v-69a2.72,2.72,0,0,1,1.22-2.13l31.05-17.92Z" style="fill:#f0f0f0"></path><path d="M223.11,225.47l-4.29-2.38a2.46,2.46,0,0,0-.32,1.13v69a.85.85,0,0,0,.36.8l2.3,1.33a.85.85,0,0,0,.87-.09l1.08-.62Z" style="fill:#e0e0e0"></path><path d="M264.6,212.15v57.16a2.7,2.7,0,0,1-1.23,2.13L222,295.31c-.68.4-1.23.08-1.23-.71v-69a2.7,2.7,0,0,1,1.23-2.13l24.13-13.94,6.91-4Z" style="fill:#fafafa"></path><path d="M253.07,206.21l10.91,6.3v56.8a2.12,2.12,0,0,1-.92,1.6l-41.34,23.87a1.33,1.33,0,0,1-.24.09.58.58,0,0,1,0-.27v-69a2.07,2.07,0,0,1,.91-1.59L246.47,210l6.6-3.82m0-.72-6.91,4L222,223.43a2.7,2.7,0,0,0-1.23,2.13v69c0,.56.28.88.68.88a1.06,1.06,0,0,0,.55-.17l41.34-23.87a2.7,2.7,0,0,0,1.23-2.13V212.15l-11.53-6.66Z" style="fill:#e0e0e0"></path><path d="M258.56,212.6c.44,0,.75.36.75,1v32A3,3,0,0,1,258,248l-30.49,17.6a1.22,1.22,0,0,1-.61.19c-.45,0-.75-.36-.75-1V232.75a3,3,0,0,1,1.36-2.36l20.62-11.9,9.87-5.7a1.2,1.2,0,0,1,.61-.19m0-.56a1.88,1.88,0,0,0-.9.26L247.8,218l-20.63,11.9a3.61,3.61,0,0,0-1.64,2.85V264.8a1.38,1.38,0,0,0,1.32,1.54,1.71,1.71,0,0,0,.89-.26l30.49-17.6a3.6,3.6,0,0,0,1.65-2.85v-32a1.38,1.38,0,0,0-1.32-1.54Z" style="fill:#e0e0e0"></path><path d="M230.09,258.29a.28.28,0,0,1-.24-.14.29.29,0,0,1,.1-.39l25.19-14.54a.29.29,0,0,1,.39.11.27.27,0,0,1-.11.38l-25.18,14.55Z" style="fill:#e0e0e0"></path><path d="M230.09,255.37a.28.28,0,0,1-.24-.14.29.29,0,0,1,.1-.39l25.19-14.54a.29.29,0,0,1,.39.1.28.28,0,0,1-.11.39l-25.18,14.54A.28.28,0,0,1,230.09,255.37Z" style="fill:#e0e0e0"></path><path d="M230.09,252.44a.28.28,0,0,1-.24-.14.28.28,0,0,1,.1-.38l25.19-14.55a.29.29,0,0,1,.39.11.29.29,0,0,1-.11.39l-25.18,14.54A.4.4,0,0,1,230.09,252.44Z" style="fill:#e0e0e0"></path><path d="M230.09,249.52a.28.28,0,0,1-.24-.14.29.29,0,0,1,.1-.39l25.19-14.54a.29.29,0,0,1,.39.1.28.28,0,0,1-.11.39l-25.18,14.54A.28.28,0,0,1,230.09,249.52Z" style="fill:#e0e0e0"></path><path d="M230.09,246.6a.29.29,0,0,1-.24-.15.28.28,0,0,1,.1-.38l25.19-14.55a.29.29,0,0,1,.39.11.29.29,0,0,1-.11.39l-25.18,14.54A.42.42,0,0,1,230.09,246.6Z" style="fill:#e0e0e0"></path><path d="M230.09,243.67a.28.28,0,0,1-.24-.14.29.29,0,0,1,.1-.39l25.19-14.54a.29.29,0,0,1,.39.1.28.28,0,0,1-.11.39l-25.18,14.54A.28.28,0,0,1,230.09,243.67Z" style="fill:#e0e0e0"></path><path d="M230.09,240.75a.27.27,0,0,1-.24-.15.28.28,0,0,1,.1-.38l25.19-14.54a.28.28,0,0,1,.39.1.29.29,0,0,1-.11.39l-25.18,14.54A.42.42,0,0,1,230.09,240.75Z" style="fill:#e0e0e0"></path><path d="M230.09,237.82a.28.28,0,0,1-.24-.14.29.29,0,0,1,.1-.39l25.19-14.54a.29.29,0,0,1,.39.1.28.28,0,0,1-.11.39l-25.18,14.54A.28.28,0,0,1,230.09,237.82Z" style="fill:#e0e0e0"></path><path d="M230.09,234.9a.28.28,0,0,1-.24-.14.29.29,0,0,1,.1-.39l25.19-14.54a.28.28,0,1,1,.28.49l-25.18,14.54A.42.42,0,0,1,230.09,234.9Z" style="fill:#e0e0e0"></path><path d="M253.08,217.38V205.49l11.52,6.66-10.29,5.94C253.63,218.49,253.08,218.17,253.08,217.38Z" style="fill:#e0e0e0"></path><path d="M238.12,265.43a3.89,3.89,0,0,0-1.77,3.08l.05,11.37c0,1.13.81,1.59,1.79,1l28.26-16.41V249.07Z" style="fill:#BA68C8"></path><path d="M238.12,265.43a3.89,3.89,0,0,0-1.77,3.08l.05,11.37c0,1.13.81,1.59,1.79,1l28.26-16.41V249.07Z" style="fill:#fff;opacity:0.5"></path><polygon points="266.45 249.07 264.6 248 264.6 250.14 266.45 249.07" style="fill:#BA68C8"></polygon><polygon points="266.45 249.07 264.6 248 264.6 250.14 266.45 249.07" style="opacity:0.30000000000000004"></polygon><path d="M244.45,271.86a.12.12,0,0,1,.15,0,.24.24,0,0,1,.07.2v1.21a.54.54,0,0,1-.07.27.42.42,0,0,1-.15.19l-.74.42a.12.12,0,0,1-.16,0,.3.3,0,0,1-.06-.2v-1.21a.66.66,0,0,1,.06-.27.52.52,0,0,1,.16-.19Z" style="fill:#455a64"></path><path d="M248,263c.67-.38,1.17-.44,1.52-.16a2.08,2.08,0,0,1,.52,1.68,5.16,5.16,0,0,1-.27,1.69,4.2,4.2,0,0,1-.79,1.4l1.11,2.41a.25.25,0,0,1,0,.12.47.47,0,0,1,0,.22.38.38,0,0,1-.12.15l-.68.39c-.11.06-.19.07-.24,0a.48.48,0,0,1-.11-.15l-1.05-2.27-1.06.62V272a.54.54,0,0,1-.07.27.42.42,0,0,1-.15.19l-.65.37a.11.11,0,0,1-.15,0,.27.27,0,0,1-.06-.2v-8a.66.66,0,0,1,.06-.27.63.63,0,0,1,.15-.19Zm-1.2,4.58L248,267a2.25,2.25,0,0,0,.73-.67,1.93,1.93,0,0,0,.27-1.09c0-.46-.09-.72-.27-.77a1,1,0,0,0-.73.19l-1.16.67Z" style="fill:#455a64"></path><path d="M254.79,259.14a.12.12,0,0,1,.15,0,.28.28,0,0,1,.06.2v.87a.66.66,0,0,1-.06.27.38.38,0,0,1-.15.19l-1.44.83v6.76a.68.68,0,0,1-.07.27.35.35,0,0,1-.15.18l-.65.38a.12.12,0,0,1-.15,0,.28.28,0,0,1-.07-.2v-6.75l-1.44.83a.12.12,0,0,1-.15,0,.28.28,0,0,1-.06-.2v-.87a.71.71,0,0,1,.06-.28.4.4,0,0,1,.15-.18Z" style="fill:#455a64"></path><path d="M259.44,256.45a.11.11,0,0,1,.15,0,.25.25,0,0,1,.06.19v.88a.66.66,0,0,1-.06.27.42.42,0,0,1-.15.19l-2.56,1.47v2.39l2.4-1.38a.12.12,0,0,1,.15,0,.28.28,0,0,1,.06.2v.87a.66.66,0,0,1-.06.27.38.38,0,0,1-.15.19l-2.4,1.38v2.83a.66.66,0,0,1-.06.27.35.35,0,0,1-.15.18l-.65.38a.12.12,0,0,1-.15,0,.26.26,0,0,1-.07-.2v-8a.54.54,0,0,1,.07-.27.38.38,0,0,1,.15-.19Z" style="fill:#455a64"></path></g><g id="freepik--HTML--inject-17"><path d="M211.2,243v57.17a2.7,2.7,0,0,1-1.23,2.12l-41.35,23.88a.85.85,0,0,1-.86.08l-2.31-1.33a.85.85,0,0,1-.36-.79V255.05a2.7,2.7,0,0,1,1.23-2.12L197.37,235Z" style="fill:#f0f0f0"></path><path d="M169.7,256.3l-4.29-2.38a2.59,2.59,0,0,0-.32,1.14v69.05a.86.86,0,0,0,.36.79l2.31,1.33a.87.87,0,0,0,.87-.08l1.07-.62Z" style="fill:#e0e0e0"></path><path d="M211.2,243v57.17a2.74,2.74,0,0,1-1.23,2.13l-41.34,23.87c-.68.39-1.23.07-1.23-.71V256.39a2.72,2.72,0,0,1,1.23-2.13l24.12-13.94,6.92-4Z" style="fill:#fafafa"></path><path d="M199.67,237l10.91,6.3v56.81a2.1,2.1,0,0,1-.92,1.59l-41.35,23.87a.69.69,0,0,1-.23.09.39.39,0,0,1-.06-.26V256.39a2.1,2.1,0,0,1,.92-1.59l24.12-13.94,6.61-3.82m0-.71-6.92,4-24.12,13.94a2.72,2.72,0,0,0-1.23,2.13v69.05c0,.55.28.87.68.87a1.17,1.17,0,0,0,.55-.16L210,302.28a2.74,2.74,0,0,0,1.23-2.13V243l-11.53-6.65Z" style="fill:#e0e0e0"></path><path d="M205.15,243.44c.45,0,.76.35.76,1v32a3,3,0,0,1-1.37,2.36l-30.49,17.6a1.16,1.16,0,0,1-.6.19c-.45,0-.76-.36-.76-1V263.59a3,3,0,0,1,1.36-2.36l20.63-11.91,9.86-5.7a1.31,1.31,0,0,1,.61-.18m0-.57a1.81,1.81,0,0,0-.89.26l-9.87,5.7-20.62,11.91a3.59,3.59,0,0,0-1.65,2.85v32.05a1.39,1.39,0,0,0,1.33,1.54,1.73,1.73,0,0,0,.89-.27l30.49-17.6a3.58,3.58,0,0,0,1.64-2.85v-32a1.38,1.38,0,0,0-1.32-1.54Z" style="fill:#e0e0e0"></path><path d="M176.69,289.13a.29.29,0,0,1-.25-.15.28.28,0,0,1,.11-.38l25.19-14.54a.27.27,0,0,1,.38.1.28.28,0,0,1-.1.39l-25.19,14.54A.33.33,0,0,1,176.69,289.13Z" style="fill:#e0e0e0"></path><path d="M176.69,286.2a.3.3,0,0,1-.25-.14.29.29,0,0,1,.11-.39l25.19-14.54a.27.27,0,0,1,.38.11.27.27,0,0,1-.1.38l-25.19,14.54A.23.23,0,0,1,176.69,286.2Z" style="fill:#e0e0e0"></path><path d="M176.69,283.28a.3.3,0,0,1-.25-.14.29.29,0,0,1,.11-.39l25.19-14.54a.27.27,0,0,1,.38.1.28.28,0,0,1-.1.39l-25.19,14.54A.23.23,0,0,1,176.69,283.28Z" style="fill:#e0e0e0"></path><path d="M176.69,280.35a.3.3,0,0,1-.25-.14.29.29,0,0,1,.11-.39l25.19-14.54a.27.27,0,0,1,.38.11.27.27,0,0,1-.1.38l-25.19,14.54A.23.23,0,0,1,176.69,280.35Z" style="fill:#e0e0e0"></path><path d="M176.69,277.43a.3.3,0,0,1-.25-.14.29.29,0,0,1,.11-.39l25.19-14.54a.28.28,0,0,1,.28.49l-25.19,14.54A.23.23,0,0,1,176.69,277.43Z" style="fill:#e0e0e0"></path><path d="M176.69,274.5a.3.3,0,0,1-.25-.14.29.29,0,0,1,.11-.39l25.19-14.54a.27.27,0,0,1,.38.11.27.27,0,0,1-.1.38l-25.19,14.55A.32.32,0,0,1,176.69,274.5Z" style="fill:#e0e0e0"></path><path d="M176.69,271.58a.3.3,0,0,1-.25-.14.29.29,0,0,1,.11-.39l25.19-14.54a.28.28,0,0,1,.28.49l-25.19,14.54A.23.23,0,0,1,176.69,271.58Z" style="fill:#e0e0e0"></path><path d="M176.69,268.65a.3.3,0,0,1-.25-.14.29.29,0,0,1,.11-.39l25.19-14.54a.28.28,0,0,1,.38.11.27.27,0,0,1-.1.38l-25.19,14.55A.32.32,0,0,1,176.69,268.65Z" style="fill:#e0e0e0"></path><path d="M176.69,265.73a.3.3,0,0,1-.25-.14.29.29,0,0,1,.11-.39l25.19-14.54a.28.28,0,0,1,.28.49l-25.19,14.54A.23.23,0,0,1,176.69,265.73Z" style="fill:#e0e0e0"></path><path d="M199.67,248.22V236.33L211.2,243l-10.3,6C200.22,249.32,199.67,249,199.67,248.22Z" style="fill:#e0e0e0"></path><path d="M184.71,296.26a3.94,3.94,0,0,0-1.77,3.09l.06,11.36c0,1.14.8,1.59,1.79,1l28.26-16.41V279.91Z" style="fill:#BA68C8"></path><path d="M184.71,296.26a3.94,3.94,0,0,0-1.77,3.09l.06,11.36c0,1.14.8,1.59,1.79,1l28.26-16.41V279.91Z" style="fill:#fff;opacity:0.5"></path><polygon points="213.05 279.9 211.2 278.84 211.2 280.97 213.05 279.9" style="fill:#BA68C8"></polygon><polygon points="213.05 279.9 211.2 278.84 211.2 280.97 213.05 279.9" style="opacity:0.30000000000000004"></polygon><path d="M187.61,304.69a.12.12,0,0,1,.15,0,.3.3,0,0,1,.07.2v1.21a.68.68,0,0,1-.07.27.42.42,0,0,1-.15.19l-.74.43a.13.13,0,0,1-.16,0,.28.28,0,0,1-.06-.2v-1.21a.66.66,0,0,1,.06-.27.52.52,0,0,1,.16-.19Z" style="fill:#455a64"></path><path d="M193.27,294.67a.12.12,0,0,1,.15,0,.28.28,0,0,1,.07.2v8a.68.68,0,0,1-.07.27.38.38,0,0,1-.15.19l-.65.37a.11.11,0,0,1-.15,0,.26.26,0,0,1-.07-.19v-3.26l-2.41,1.4v3.25a.54.54,0,0,1-.07.27.38.38,0,0,1-.15.19l-.65.37q-.09.06-.15,0a.29.29,0,0,1-.06-.21v-8a.66.66,0,0,1,.06-.27.35.35,0,0,1,.15-.18l.65-.38a.12.12,0,0,1,.15,0,.24.24,0,0,1,.07.2v3.17l2.41-1.4V295.5a.68.68,0,0,1,.07-.27.35.35,0,0,1,.15-.18Z" style="fill:#455a64"></path><path d="M198.47,291.67a.12.12,0,0,1,.15,0,.28.28,0,0,1,.06.2v.88a.7.7,0,0,1-.06.27.47.47,0,0,1-.15.18L197,294v6.76a.66.66,0,0,1-.06.27.42.42,0,0,1-.15.19l-.65.37a.12.12,0,0,1-.15,0,.28.28,0,0,1-.07-.2v-6.75l-1.44.83a.12.12,0,0,1-.15,0,.28.28,0,0,1-.06-.2v-.87a.66.66,0,0,1,.06-.27.38.38,0,0,1,.15-.19Z" style="fill:#455a64"></path><path d="M202.11,294l1.52-5,.11-.26a.56.56,0,0,1,.23-.27l.55-.31a.11.11,0,0,1,.15,0,.27.27,0,0,1,.06.2v8a.66.66,0,0,1-.06.27.42.42,0,0,1-.15.19l-.65.37a.12.12,0,0,1-.15,0,.24.24,0,0,1-.07-.2v-4.82l-1,3.38a1.83,1.83,0,0,1-.11.26.58.58,0,0,1-.18.22l-.42.24q-.12.06-.18,0a.53.53,0,0,1-.12-.14l-1-2.17v4.82a.66.66,0,0,1-.06.27.35.35,0,0,1-.15.18l-.65.38a.12.12,0,0,1-.15,0,.24.24,0,0,1-.07-.2v-8a.54.54,0,0,1,.07-.27.38.38,0,0,1,.15-.19l.54-.31c.11-.07.19-.07.24,0l.11.14Z" style="fill:#455a64"></path><path d="M209.71,292.27a.12.12,0,0,1,.15,0,.28.28,0,0,1,.06.2v.87a.66.66,0,0,1-.06.27.52.52,0,0,1-.15.19l-3.51,2a.11.11,0,0,1-.15,0,.22.22,0,0,1-.07-.19v-8a.54.54,0,0,1,.07-.27.35.35,0,0,1,.15-.18l.65-.38a.12.12,0,0,1,.15,0,.28.28,0,0,1,.06.2v6.76Z" style="fill:#455a64"></path></g><g id="freepik--XML--inject-17"><path d="M157.8,273.82V331a2.7,2.7,0,0,1-1.24,2.13L115.22,357a.88.88,0,0,1-.87.09l-2.3-1.34a.85.85,0,0,1-.36-.79V285.89a2.7,2.7,0,0,1,1.23-2.13l31-17.93Z" style="fill:#f0f0f0"></path><path d="M116.3,287.13,112,284.75a2.46,2.46,0,0,0-.32,1.14v69.05a.88.88,0,0,0,.36.8l2.3,1.33a.88.88,0,0,0,.87-.09l1.08-.62Z" style="fill:#e0e0e0"></path><path d="M157.79,273.82V331a2.72,2.72,0,0,1-1.23,2.13L115.22,357c-.67.39-1.22.07-1.22-.71v-69a2.75,2.75,0,0,1,1.22-2.13l24.13-13.93,6.92-4Z" style="fill:#fafafa"></path><path d="M146.27,267.88l10.9,6.3V331a2.08,2.08,0,0,1-.92,1.59l-41.34,23.87a.49.49,0,0,1-.24.09.48.48,0,0,1,0-.26v-69a2.12,2.12,0,0,1,.91-1.59l24.13-13.94,6.61-3.81m0-.72-6.92,4-24.13,13.93a2.75,2.75,0,0,0-1.22,2.13v69c0,.56.27.88.68.88a1.12,1.12,0,0,0,.54-.17l41.34-23.87a2.72,2.72,0,0,0,1.23-2.13V273.82l-11.52-6.66Z" style="fill:#e0e0e0"></path><path d="M151.75,274.27c.45,0,.75.36.75,1v32.05a3,3,0,0,1-1.36,2.36l-30.49,17.61a1.28,1.28,0,0,1-.61.18c-.44,0-.75-.35-.75-1V294.42a3,3,0,0,1,1.36-2.36l20.62-11.91,9.87-5.69a1.22,1.22,0,0,1,.61-.19m0-.57a1.81,1.81,0,0,0-.89.26l-9.87,5.7-20.62,11.91a3.56,3.56,0,0,0-1.65,2.85v32.05A1.38,1.38,0,0,0,120,328a1.81,1.81,0,0,0,.89-.26l30.49-17.61a3.56,3.56,0,0,0,1.65-2.85V275.24a1.38,1.38,0,0,0-1.32-1.54Z" style="fill:#e0e0e0"></path><path d="M123.29,320a.29.29,0,0,1-.25-.14.29.29,0,0,1,.1-.39l25.19-14.54a.28.28,0,0,1,.29.49l-25.19,14.54A.25.25,0,0,1,123.29,320Z" style="fill:#e0e0e0"></path><path d="M123.29,317a.29.29,0,0,1-.25-.15.28.28,0,0,1,.1-.38L148.33,302a.29.29,0,0,1,.29.5L123.43,317A.37.37,0,0,1,123.29,317Z" style="fill:#e0e0e0"></path><path d="M123.29,314.11A.29.29,0,0,1,123,314a.29.29,0,0,1,.1-.39L148.33,299a.28.28,0,0,1,.29.49l-25.19,14.54A.25.25,0,0,1,123.29,314.11Z" style="fill:#e0e0e0"></path><path d="M123.29,311.19A.29.29,0,0,1,123,311a.28.28,0,0,1,.1-.38l25.19-14.55a.29.29,0,0,1,.29.5l-25.19,14.54A.37.37,0,0,1,123.29,311.19Z" style="fill:#e0e0e0"></path><path d="M123.29,308.26a.29.29,0,0,1-.25-.14.29.29,0,0,1,.1-.39l25.19-14.54a.28.28,0,1,1,.29.49l-25.19,14.54A.25.25,0,0,1,123.29,308.26Z" style="fill:#e0e0e0"></path><path d="M123.29,305.34a.27.27,0,0,1-.25-.15.28.28,0,0,1,.1-.38l25.19-14.54a.28.28,0,0,1,.39.1.29.29,0,0,1-.1.39L123.43,305.3A.37.37,0,0,1,123.29,305.34Z" style="fill:#e0e0e0"></path><path d="M123.29,302.41a.29.29,0,0,1-.25-.14.29.29,0,0,1,.1-.39l25.19-14.54a.28.28,0,1,1,.29.49l-25.19,14.54A.25.25,0,0,1,123.29,302.41Z" style="fill:#e0e0e0"></path><path d="M123.29,299.49a.29.29,0,0,1-.25-.14.29.29,0,0,1,.1-.39l25.19-14.54a.28.28,0,0,1,.39.1.29.29,0,0,1-.1.39l-25.19,14.54A.37.37,0,0,1,123.29,299.49Z" style="fill:#e0e0e0"></path><path d="M123.29,296.56a.29.29,0,0,1-.25-.14.29.29,0,0,1,.1-.39l25.19-14.54a.28.28,0,0,1,.39.11.28.28,0,0,1-.1.38l-25.19,14.54A.25.25,0,0,1,123.29,296.56Z" style="fill:#e0e0e0"></path><path d="M146.27,279.05V267.16l11.53,6.66-10.3,5.94C146.82,280.15,146.27,279.83,146.27,279.05Z" style="fill:#e0e0e0"></path><path d="M131.31,327.1a3.88,3.88,0,0,0-1.77,3.08l.06,11.36c0,1.14.8,1.6,1.78,1l28.26-16.42V310.74Z" style="fill:#BA68C8"></path><path d="M131.31,327.1a3.88,3.88,0,0,0-1.77,3.08l.06,11.36c0,1.14.8,1.6,1.78,1l28.26-16.42V310.74Z" style="fill:#fff;opacity:0.5"></path><polygon points="159.65 310.74 157.79 309.67 157.8 311.81 159.65 310.74" style="fill:#BA68C8"></polygon><polygon points="159.65 310.74 157.79 309.67 157.8 311.81 159.65 310.74" style="opacity:0.30000000000000004"></polygon><path d="M136.84,334a.12.12,0,0,1,.15,0,.3.3,0,0,1,.06.2v1.21a.66.66,0,0,1-.06.27.42.42,0,0,1-.15.19l-.75.43a.12.12,0,0,1-.15,0,.28.28,0,0,1-.06-.2v-1.21a.66.66,0,0,1,.06-.27.51.51,0,0,1,.15-.19Z" style="fill:#455a64"></path><path d="M141.76,333c-.1.06-.18.06-.23,0l-.1-.13-1.28-2-1.26,3.46-.11.24a.49.49,0,0,1-.23.26l-.67.39a.12.12,0,0,1-.15,0,.24.24,0,0,1-.07-.2.49.49,0,0,1,0-.15l1.83-5-1.75-2.75a.27.27,0,0,1,0-.12.54.54,0,0,1,.07-.27.42.42,0,0,1,.15-.19l.67-.39c.11-.06.19-.06.23,0l.11.13,1.21,1.9,1.2-3.29a2.54,2.54,0,0,1,.1-.25.64.64,0,0,1,.23-.26l.68-.38a.11.11,0,0,1,.15,0,.25.25,0,0,1,.06.19.77.77,0,0,1,0,.15l-1.77,4.83,1.82,2.84a.5.5,0,0,1,0,.12.66.66,0,0,1-.06.27.52.52,0,0,1-.16.19Z" style="fill:#455a64"></path><path d="M146.07,326.32l1.52-4.94c0-.06.06-.14.11-.26a.63.63,0,0,1,.23-.28l.55-.31a.12.12,0,0,1,.15,0,.28.28,0,0,1,.06.2v8a.66.66,0,0,1-.06.27.42.42,0,0,1-.15.19l-.65.37a.11.11,0,0,1-.15,0,.24.24,0,0,1-.07-.2V324.5l-1,3.38a1.4,1.4,0,0,1-.11.27.54.54,0,0,1-.18.21l-.42.24a.15.15,0,0,1-.18,0,.53.53,0,0,1-.12-.14l-1-2.17v4.82a.66.66,0,0,1-.06.27.42.42,0,0,1-.15.19l-.65.37a.12.12,0,0,1-.15,0,.24.24,0,0,1-.07-.2v-8a.54.54,0,0,1,.07-.27.42.42,0,0,1,.15-.19l.54-.31q.17-.09.24,0l.11.13Z" style="fill:#455a64"></path><path d="M153.67,324.62a.12.12,0,0,1,.15,0,.28.28,0,0,1,.06.2v.87a.67.67,0,0,1-.06.28.4.4,0,0,1-.15.18l-3.51,2a.12.12,0,0,1-.15,0,.26.26,0,0,1-.07-.2v-8a.54.54,0,0,1,.07-.27.38.38,0,0,1,.15-.19l.65-.38a.11.11,0,0,1,.15,0,.25.25,0,0,1,.06.19v6.76Z" style="fill:#455a64"></path></g><g id="freepik--PDF--inject-17"><path d="M264.6,127.36v57.16a2.7,2.7,0,0,1-1.23,2.13L222,210.53a.87.87,0,0,1-.87.08l-2.31-1.33a.88.88,0,0,1-.35-.8v-69a2.72,2.72,0,0,1,1.22-2.13l31.05-17.92Z" style="fill:#f0f0f0"></path><path d="M223.11,140.68l-4.29-2.38a2.44,2.44,0,0,0-.33,1.13v69a.87.87,0,0,0,.35.8l2.31,1.33a.85.85,0,0,0,.87-.09l1.08-.62Z" style="fill:#e0e0e0"></path><path d="M264.6,127.36v57.16a2.7,2.7,0,0,1-1.23,2.13L222,210.52c-.68.4-1.23.08-1.23-.71v-69a2.7,2.7,0,0,1,1.23-2.13l24.13-13.94,6.91-4Z" style="fill:#fafafa"></path><path d="M253.07,121.42l10.91,6.3v56.8a2.12,2.12,0,0,1-.92,1.6L221.72,210a1.33,1.33,0,0,1-.24.09.52.52,0,0,1-.06-.27v-69a2.08,2.08,0,0,1,.92-1.59l24.13-13.94,6.6-3.82m0-.72-6.91,4L222,138.64a2.7,2.7,0,0,0-1.23,2.13v69c0,.56.28.88.68.88a1.06,1.06,0,0,0,.55-.17l41.34-23.87a2.7,2.7,0,0,0,1.23-2.13V127.36l-11.53-6.66Z" style="fill:#e0e0e0"></path><path d="M258.56,127.81c.44,0,.75.36.75,1v32.05A3,3,0,0,1,258,163.2l-30.49,17.6a1.22,1.22,0,0,1-.61.19c-.45,0-.75-.36-.75-1V148a3,3,0,0,1,1.36-2.36l20.62-11.9L258,128a1.2,1.2,0,0,1,.61-.19m0-.56a1.82,1.82,0,0,0-.9.26l-9.87,5.7-20.62,11.9a3.61,3.61,0,0,0-1.64,2.85v32a1.38,1.38,0,0,0,1.32,1.54,1.71,1.71,0,0,0,.89-.26l30.49-17.6a3.6,3.6,0,0,0,1.65-2.85V128.79a1.38,1.38,0,0,0-1.32-1.54Z" style="fill:#e0e0e0"></path><path d="M230.09,173.5a.28.28,0,0,1-.24-.14.29.29,0,0,1,.1-.39l25.19-14.54a.29.29,0,0,1,.39.11.27.27,0,0,1-.11.38l-25.18,14.55A.4.4,0,0,1,230.09,173.5Z" style="fill:#e0e0e0"></path><path d="M230.09,170.58a.28.28,0,0,1-.24-.14.29.29,0,0,1,.1-.39l25.19-14.54a.29.29,0,0,1,.39.1.28.28,0,0,1-.11.39l-25.18,14.54A.28.28,0,0,1,230.09,170.58Z" style="fill:#e0e0e0"></path><path d="M230.09,167.65a.28.28,0,0,1-.24-.14.28.28,0,0,1,.1-.38l25.19-14.55a.29.29,0,0,1,.39.11.29.29,0,0,1-.11.39l-25.18,14.54Z" style="fill:#e0e0e0"></path><path d="M230.09,164.73a.28.28,0,0,1-.24-.14.29.29,0,0,1,.1-.39l25.19-14.54a.29.29,0,0,1,.39.1.28.28,0,0,1-.11.39l-25.18,14.54A.28.28,0,0,1,230.09,164.73Z" style="fill:#e0e0e0"></path><path d="M230.09,161.81a.29.29,0,0,1-.24-.15.28.28,0,0,1,.1-.38l25.19-14.55a.29.29,0,0,1,.39.11.29.29,0,0,1-.11.39l-25.18,14.54A.42.42,0,0,1,230.09,161.81Z" style="fill:#e0e0e0"></path><path d="M230.09,158.88a.28.28,0,0,1-.24-.14.29.29,0,0,1,.1-.39l25.19-14.54a.29.29,0,0,1,.39.1.28.28,0,0,1-.11.39l-25.18,14.54A.28.28,0,0,1,230.09,158.88Z" style="fill:#e0e0e0"></path><path d="M230.09,156a.29.29,0,0,1-.24-.15.28.28,0,0,1,.1-.38l25.19-14.55a.29.29,0,0,1,.39.11.29.29,0,0,1-.11.39l-25.18,14.54A.42.42,0,0,1,230.09,156Z" style="fill:#e0e0e0"></path><path d="M230.09,153a.28.28,0,0,1-.24-.14.29.29,0,0,1,.1-.39L255.14,138a.29.29,0,0,1,.39.1.28.28,0,0,1-.11.39L230.24,153A.28.28,0,0,1,230.09,153Z" style="fill:#e0e0e0"></path><path d="M230.09,150.11a.27.27,0,0,1-.24-.15.28.28,0,0,1,.1-.38L255.14,135a.28.28,0,1,1,.28.49l-25.18,14.54A.42.42,0,0,1,230.09,150.11Z" style="fill:#e0e0e0"></path><path d="M253.08,132.59V120.7l11.52,6.66-10.29,5.94C253.63,133.69,253.08,133.38,253.08,132.59Z" style="fill:#e0e0e0"></path><path d="M238.12,180.64a3.89,3.89,0,0,0-1.77,3.08l.05,11.37c0,1.13.81,1.59,1.79,1l28.26-16.41V164.28Z" style="fill:#BA68C8"></path><path d="M238.12,180.64a3.89,3.89,0,0,0-1.77,3.08l.05,11.37c0,1.13.81,1.59,1.79,1l28.26-16.41V164.28Z" style="fill:#fff;opacity:0.5"></path><polygon points="266.45 164.28 264.6 163.21 264.6 165.35 266.45 164.28" style="fill:#BA68C8"></polygon><polygon points="266.45 164.28 264.6 163.21 264.6 165.35 266.45 164.28" style="opacity:0.30000000000000004"></polygon><path d="M244,187.25a.13.13,0,0,1,.16,0,.28.28,0,0,1,.06.2v1.21a.66.66,0,0,1-.06.27.41.41,0,0,1-.16.18l-.74.43a.11.11,0,0,1-.15,0,.22.22,0,0,1-.07-.19v-1.21a.54.54,0,0,1,.07-.27.38.38,0,0,1,.15-.19Z" style="fill:#455a64"></path><path d="M247.68,178.38c.65-.37,1.15-.42,1.51-.16s.53.84.53,1.75a5.18,5.18,0,0,1-.53,2.38,3.84,3.84,0,0,1-1.51,1.58l-1.28.74v2.75a.66.66,0,0,1-.06.27.52.52,0,0,1-.16.19l-.64.37a.12.12,0,0,1-.16,0,.28.28,0,0,1-.06-.2v-8a.66.66,0,0,1,.06-.27.52.52,0,0,1,.16-.19Zm-1.28,4.75,1.24-.72a2,2,0,0,0,.73-.7,2.06,2.06,0,0,0,.27-1.12c0-.46-.09-.73-.27-.8a.88.88,0,0,0-.73.16l-1.24.72Z" style="fill:#455a64"></path><path d="M252.79,175.44a2.28,2.28,0,0,1,1-.36,1,1,0,0,1,.73.26,1.82,1.82,0,0,1,.44.82,5.19,5.19,0,0,1,.19,1.3c0,.59,0,1.2,0,1.82a8.1,8.1,0,0,1-.19,1.51,5.93,5.93,0,0,1-.44,1.33,4.54,4.54,0,0,1-.72,1.1,4,4,0,0,1-1,.82l-2,1.16a.11.11,0,0,1-.15,0,.25.25,0,0,1-.06-.19v-8a.67.67,0,0,1,.06-.28.35.35,0,0,1,.15-.18Zm1.31,2.64a2.71,2.71,0,0,0-.1-.68,1,1,0,0,0-.25-.45.58.58,0,0,0-.41-.15,1.28,1.28,0,0,0-.59.2l-1.07.62v5.55l1.11-.65a2,2,0,0,0,.57-.47,2.64,2.64,0,0,0,.4-.62,3.29,3.29,0,0,0,.24-.73,4.27,4.27,0,0,0,.1-.8C254.12,179.28,254.12,178.68,254.1,178.08Z" style="fill:#455a64"></path><path d="M259.87,171.35a.12.12,0,0,1,.15,0,.28.28,0,0,1,.06.2v.87a.66.66,0,0,1-.06.27.44.44,0,0,1-.15.19l-2.56,1.47v2.4l2.4-1.39a.11.11,0,0,1,.15,0,.25.25,0,0,1,.06.19v.88a.66.66,0,0,1-.06.27.4.4,0,0,1-.15.18l-2.4,1.39v2.82a.66.66,0,0,1-.06.27.42.42,0,0,1-.15.19l-.65.37a.12.12,0,0,1-.15,0,.24.24,0,0,1-.07-.2v-8a.54.54,0,0,1,.07-.27.42.42,0,0,1,.15-.19Z" style="fill:#455a64"></path></g><g id="freepik--DOC--inject-17"><path d="M211.2,158.19v57.17a2.7,2.7,0,0,1-1.23,2.12l-41.35,23.88a.85.85,0,0,1-.86.08l-2.31-1.33a.85.85,0,0,1-.36-.79V170.26a2.7,2.7,0,0,1,1.23-2.12l31.05-17.93Z" style="fill:#f0f0f0"></path><path d="M169.7,171.51l-4.29-2.38a2.46,2.46,0,0,0-.32,1.14v69a.86.86,0,0,0,.36.79l2.31,1.33a.87.87,0,0,0,.87-.08l1.07-.62Z" style="fill:#e0e0e0"></path><path d="M211.2,158.19v57.17a2.74,2.74,0,0,1-1.23,2.13l-41.34,23.87c-.68.39-1.23.07-1.23-.71V171.6a2.72,2.72,0,0,1,1.23-2.13l24.12-13.94,6.92-4Z" style="fill:#fafafa"></path><path d="M199.67,152.25l10.91,6.3v56.81a2.08,2.08,0,0,1-.93,1.59l-41.34,23.87a.69.69,0,0,1-.23.09.39.39,0,0,1-.06-.26V171.6a2.1,2.1,0,0,1,.92-1.59l24.12-13.94,6.61-3.82m0-.71-6.92,4-24.12,13.94a2.72,2.72,0,0,0-1.23,2.13v69.05c0,.55.28.87.68.87a1.17,1.17,0,0,0,.55-.16L210,217.49a2.74,2.74,0,0,0,1.23-2.13V158.19l-11.53-6.65Z" style="fill:#e0e0e0"></path><path d="M205.15,158.65c.45,0,.76.35.76,1v32a3,3,0,0,1-1.37,2.36l-30.49,17.6a1.19,1.19,0,0,1-.6.19c-.45,0-.76-.36-.76-1v-32a3,3,0,0,1,1.36-2.36l20.62-11.91,9.87-5.7a1.31,1.31,0,0,1,.61-.18m0-.57a1.81,1.81,0,0,0-.89.26l-9.87,5.7L173.77,176a3.59,3.59,0,0,0-1.65,2.85v32a1.39,1.39,0,0,0,1.33,1.54,1.73,1.73,0,0,0,.89-.27l30.49-17.6a3.58,3.58,0,0,0,1.64-2.85v-32a1.38,1.38,0,0,0-1.32-1.54Z" style="fill:#e0e0e0"></path><path d="M176.69,204.34a.29.29,0,0,1-.25-.15.28.28,0,0,1,.11-.38l25.19-14.54a.27.27,0,0,1,.38.1.28.28,0,0,1-.1.39L176.83,204.3A.33.33,0,0,1,176.69,204.34Z" style="fill:#e0e0e0"></path><path d="M176.69,201.41a.3.3,0,0,1-.25-.14.29.29,0,0,1,.11-.39l25.19-14.54a.28.28,0,0,1,.28.49l-25.19,14.54A.23.23,0,0,1,176.69,201.41Z" style="fill:#e0e0e0"></path><path d="M176.69,198.49a.3.3,0,0,1-.25-.14.29.29,0,0,1,.11-.39l25.19-14.54a.27.27,0,0,1,.38.1.28.28,0,0,1-.1.39l-25.19,14.54A.23.23,0,0,1,176.69,198.49Z" style="fill:#e0e0e0"></path><path d="M176.69,195.56a.3.3,0,0,1-.25-.14.29.29,0,0,1,.11-.39l25.19-14.54a.27.27,0,0,1,.38.11.27.27,0,0,1-.1.38l-25.19,14.54A.23.23,0,0,1,176.69,195.56Z" style="fill:#e0e0e0"></path><path d="M176.69,192.64a.3.3,0,0,1-.25-.14.29.29,0,0,1,.11-.39l25.19-14.54a.27.27,0,0,1,.38.1.28.28,0,0,1-.1.39L176.83,192.6A.23.23,0,0,1,176.69,192.64Z" style="fill:#e0e0e0"></path><path d="M176.69,189.71a.3.3,0,0,1-.25-.14.29.29,0,0,1,.11-.39l25.19-14.54a.27.27,0,0,1,.38.11.27.27,0,0,1-.1.38l-25.19,14.55A.32.32,0,0,1,176.69,189.71Z" style="fill:#e0e0e0"></path><path d="M176.69,186.79a.3.3,0,0,1-.25-.14.29.29,0,0,1,.11-.39l25.19-14.54a.28.28,0,0,1,.28.49l-25.19,14.54A.23.23,0,0,1,176.69,186.79Z" style="fill:#e0e0e0"></path><path d="M176.69,183.86a.3.3,0,0,1-.25-.14.29.29,0,0,1,.11-.39l25.19-14.54a.28.28,0,0,1,.38.11.27.27,0,0,1-.1.38l-25.19,14.55A.32.32,0,0,1,176.69,183.86Z" style="fill:#e0e0e0"></path><path d="M176.69,180.94a.3.3,0,0,1-.25-.14.29.29,0,0,1,.11-.39l25.19-14.54a.28.28,0,0,1,.28.49L176.83,180.9A.23.23,0,0,1,176.69,180.94Z" style="fill:#e0e0e0"></path><path d="M199.67,163.43V151.54l11.53,6.65-10.3,5.95C200.22,164.53,199.67,164.21,199.67,163.43Z" style="fill:#e0e0e0"></path><path d="M184.71,211.47a3.94,3.94,0,0,0-1.77,3.09l.06,11.36c0,1.13.8,1.59,1.79,1l28.26-16.41V195.11Z" style="fill:#BA68C8"></path><path d="M184.71,211.47a3.94,3.94,0,0,0-1.77,3.09l.06,11.36c0,1.13.8,1.59,1.79,1l28.26-16.41V195.11Z" style="fill:#fff;opacity:0.5"></path><polygon points="213.05 195.12 211.2 194.05 211.2 196.18 213.05 195.12" style="fill:#BA68C8"></polygon><polygon points="213.05 195.12 211.2 194.05 211.2 196.18 213.05 195.12" style="opacity:0.30000000000000004"></polygon><path d="M190.06,218.42a.12.12,0,0,1,.15,0,.3.3,0,0,1,.07.2v1.21a.68.68,0,0,1-.07.27.42.42,0,0,1-.15.19l-.75.43a.12.12,0,0,1-.15,0,.28.28,0,0,1-.06-.2v-1.21a.66.66,0,0,1,.06-.27.51.51,0,0,1,.15-.19Z" style="fill:#455a64"></path><path d="M193.55,209.65a2.37,2.37,0,0,1,1-.35,1,1,0,0,1,.73.26,1.82,1.82,0,0,1,.44.82,5.17,5.17,0,0,1,.19,1.29q0,.9,0,1.83a8.1,8.1,0,0,1-.19,1.51,6.11,6.11,0,0,1-.44,1.33,4.54,4.54,0,0,1-.72,1.1,4,4,0,0,1-1,.82l-2,1.16a.11.11,0,0,1-.15,0,.25.25,0,0,1-.06-.19v-8a.66.66,0,0,1,.06-.27.42.42,0,0,1,.15-.19Zm1.31,2.65a2.71,2.71,0,0,0-.1-.68,1,1,0,0,0-.25-.45.58.58,0,0,0-.41-.15,1.28,1.28,0,0,0-.59.2l-1.07.62v5.54l1.11-.64a2.17,2.17,0,0,0,.57-.47,2.86,2.86,0,0,0,.4-.62,3.29,3.29,0,0,0,.24-.73,4.27,4.27,0,0,0,.1-.8C194.88,213.5,194.88,212.89,194.86,212.3Z" style="fill:#455a64"></path><path d="M196.8,211a8.36,8.36,0,0,1,.17-1.4,6.31,6.31,0,0,1,.44-1.31,4.93,4.93,0,0,1,.72-1.13,4,4,0,0,1,1-.86,2,2,0,0,1,1-.32,1,1,0,0,1,.72.3,1.86,1.86,0,0,1,.44.8,5.23,5.23,0,0,1,.18,1.21c0,.15,0,.32,0,.51V210c0,.19,0,.36,0,.52a8.25,8.25,0,0,1-.18,1.4,5.59,5.59,0,0,1-.43,1.31,4.47,4.47,0,0,1-.73,1.13,4,4,0,0,1-1,.85,2,2,0,0,1-1,.33,1,1,0,0,1-.72-.29,1.84,1.84,0,0,1-.44-.81,5.25,5.25,0,0,1-.17-1.2c0-.15,0-.32,0-.51s0-.38,0-.58,0-.4,0-.59S196.79,211.15,196.8,211Zm3.63-2a1.62,1.62,0,0,0-.38-1.16c-.22-.19-.52-.18-.9,0a2.32,2.32,0,0,0-.9,1,4,4,0,0,0-.37,1.59c0,.32,0,.67,0,1s0,.73,0,1a1.6,1.6,0,0,0,.37,1.16c.23.19.53.17.9,0a2.26,2.26,0,0,0,.9-1,3.88,3.88,0,0,0,.38-1.59c0-.31,0-.66,0-1S200.44,209.27,200.43,209Z" style="fill:#455a64"></path><path d="M206,208.35a.61.61,0,0,1,.08-.28.36.36,0,0,1,.15-.17l.65-.37a.11.11,0,0,1,.15,0c.05,0,.07.1.06.2a5.71,5.71,0,0,1-.16,1.11,5.26,5.26,0,0,1-.43,1.16,5.4,5.4,0,0,1-.73,1.08,4,4,0,0,1-1.06.88,2,2,0,0,1-1,.31A1.06,1.06,0,0,1,203,212a1.75,1.75,0,0,1-.46-.81,5,5,0,0,1-.2-1.26c0-.3,0-.64,0-1s0-.73,0-1a8.23,8.23,0,0,1,.2-1.48A6.22,6.22,0,0,1,203,205a5.12,5.12,0,0,1,.72-1.12,3.86,3.86,0,0,1,1-.82,2.08,2.08,0,0,1,1.06-.35,1.11,1.11,0,0,1,.73.24,1.44,1.44,0,0,1,.43.67,3.4,3.4,0,0,1,.16.91.46.46,0,0,1-.06.28.4.4,0,0,1-.15.18l-.65.37a.12.12,0,0,1-.15,0c-.05,0-.08-.09-.09-.19a1.64,1.64,0,0,0-.11-.41.61.61,0,0,0-.24-.28.55.55,0,0,0-.39-.08,1.25,1.25,0,0,0-.54.19,2.05,2.05,0,0,0-.55.47,3.17,3.17,0,0,0-.39.61,4.16,4.16,0,0,0-.24.73,5.51,5.51,0,0,0-.1.79c0,.32,0,.67,0,1s0,.72,0,1a3.26,3.26,0,0,0,.1.68,1.08,1.08,0,0,0,.24.44.58.58,0,0,0,.39.17,1,1,0,0,0,.55-.16,2.55,2.55,0,0,0,.54-.43,3.13,3.13,0,0,0,.39-.53,3,3,0,0,0,.24-.56A2.86,2.86,0,0,0,206,208.35Z" style="fill:#455a64"></path></g><g id="freepik--TXT--inject-17"><path d="M157.8,189v57.16a2.72,2.72,0,0,1-1.24,2.13l-41.34,23.87a.88.88,0,0,1-.87.09l-2.3-1.34a.85.85,0,0,1-.36-.79v-69a2.68,2.68,0,0,1,1.23-2.13L144,181Z" style="fill:#f0f0f0"></path><path d="M116.3,202.34,112,200a2.46,2.46,0,0,0-.32,1.14v69a.85.85,0,0,0,.36.79l2.3,1.34a.88.88,0,0,0,.87-.09l1.08-.62Z" style="fill:#e0e0e0"></path><path d="M157.79,189v57.16a2.72,2.72,0,0,1-1.23,2.13l-41.34,23.87c-.67.39-1.22.07-1.22-.71V202.43a2.75,2.75,0,0,1,1.22-2.13l24.13-13.93,6.92-4Z" style="fill:#fafafa"></path><path d="M146.27,183.09l10.9,6.3v56.8a2.08,2.08,0,0,1-.92,1.59l-41.34,23.87a.49.49,0,0,1-.24.09.48.48,0,0,1,0-.26V202.43a2.12,2.12,0,0,1,.91-1.59l24.13-13.94,6.61-3.81m0-.72-6.92,4L115.22,200.3a2.75,2.75,0,0,0-1.22,2.13v69.05c0,.56.27.88.68.88a1.12,1.12,0,0,0,.54-.17l41.34-23.87a2.72,2.72,0,0,0,1.23-2.13V189l-11.52-6.66Z" style="fill:#e0e0e0"></path><path d="M151.75,189.48c.44,0,.75.36.75,1V222.5a3,3,0,0,1-1.36,2.36l-30.49,17.61a1.31,1.31,0,0,1-.61.18c-.45,0-.75-.35-.75-1V209.63a3,3,0,0,1,1.36-2.36l20.62-11.91,9.87-5.69a1.22,1.22,0,0,1,.61-.19m0-.57a1.81,1.81,0,0,0-.89.26l-9.87,5.7-20.62,11.91a3.56,3.56,0,0,0-1.65,2.85v32.05a1.38,1.38,0,0,0,1.32,1.54,1.81,1.81,0,0,0,.89-.26l30.49-17.61a3.56,3.56,0,0,0,1.65-2.85V190.45a1.38,1.38,0,0,0-1.32-1.54Z" style="fill:#e0e0e0"></path><path d="M123.29,235.17A.29.29,0,0,1,123,235a.29.29,0,0,1,.1-.39l25.19-14.54a.28.28,0,1,1,.29.49l-25.19,14.54A.25.25,0,0,1,123.29,235.17Z" style="fill:#e0e0e0"></path><path d="M123.29,232.25a.29.29,0,0,1-.25-.15.28.28,0,0,1,.1-.38l25.19-14.55a.29.29,0,0,1,.29.5l-25.19,14.54A.37.37,0,0,1,123.29,232.25Z" style="fill:#e0e0e0"></path><path d="M123.29,229.32a.29.29,0,0,1-.25-.14.29.29,0,0,1,.1-.39l25.19-14.54a.28.28,0,1,1,.29.49l-25.19,14.54A.25.25,0,0,1,123.29,229.32Z" style="fill:#e0e0e0"></path><path d="M123.29,226.4a.29.29,0,0,1-.25-.15.28.28,0,0,1,.1-.38l25.19-14.55a.29.29,0,0,1,.29.5l-25.19,14.54A.37.37,0,0,1,123.29,226.4Z" style="fill:#e0e0e0"></path><path d="M123.29,223.47a.29.29,0,0,1-.25-.14.29.29,0,0,1,.1-.39l25.19-14.54a.28.28,0,1,1,.29.49l-25.19,14.54A.25.25,0,0,1,123.29,223.47Z" style="fill:#e0e0e0"></path><path d="M123.29,220.55a.27.27,0,0,1-.25-.15.28.28,0,0,1,.1-.38l25.19-14.54a.28.28,0,0,1,.39.1.29.29,0,0,1-.1.39l-25.19,14.54A.37.37,0,0,1,123.29,220.55Z" style="fill:#e0e0e0"></path><path d="M123.29,217.62a.29.29,0,0,1-.25-.14.29.29,0,0,1,.1-.39l25.19-14.54a.28.28,0,1,1,.29.49l-25.19,14.54A.25.25,0,0,1,123.29,217.62Z" style="fill:#e0e0e0"></path><path d="M123.29,214.7a.27.27,0,0,1-.25-.15.28.28,0,0,1,.1-.38l25.19-14.54a.28.28,0,0,1,.39.1.29.29,0,0,1-.1.39l-25.19,14.54A.37.37,0,0,1,123.29,214.7Z" style="fill:#e0e0e0"></path><path d="M123.29,211.77a.29.29,0,0,1-.25-.14.29.29,0,0,1,.1-.39l25.19-14.54a.28.28,0,1,1,.29.49l-25.19,14.54A.25.25,0,0,1,123.29,211.77Z" style="fill:#e0e0e0"></path><path d="M146.27,194.26V182.37L157.8,189,147.5,195C146.82,195.36,146.27,195,146.27,194.26Z" style="fill:#e0e0e0"></path><path d="M131.31,242.31a3.88,3.88,0,0,0-1.77,3.08l.05,11.36c0,1.14.81,1.6,1.79,1l28.26-16.42V226Z" style="fill:#BA68C8"></path><path d="M131.31,242.31a3.88,3.88,0,0,0-1.77,3.08l.05,11.36c0,1.14.81,1.6,1.79,1l28.26-16.42V226Z" style="fill:#fff;opacity:0.5"></path><polygon points="159.64 225.95 157.79 224.88 157.8 227.01 159.64 225.95" style="fill:#BA68C8"></polygon><polygon points="159.64 225.95 157.79 224.88 157.8 227.01 159.64 225.95" style="opacity:0.30000000000000004"></polygon><path d="M137.94,248.51a.12.12,0,0,1,.16,0,.28.28,0,0,1,.06.2v1.2a.74.74,0,0,1-.06.28.41.41,0,0,1-.16.18l-.74.43a.12.12,0,0,1-.15,0,.24.24,0,0,1-.07-.2v-1.2a.58.58,0,0,1,.07-.28.35.35,0,0,1,.15-.18Z" style="fill:#455a64"></path><path d="M142.47,239.14a.12.12,0,0,1,.16,0,.27.27,0,0,1,.06.19v.88a.66.66,0,0,1-.06.27.52.52,0,0,1-.16.19l-1.44.83v6.75a.67.67,0,0,1-.06.28.35.35,0,0,1-.15.18l-.65.38a.12.12,0,0,1-.15,0,.26.26,0,0,1-.07-.2v-6.76l-1.44.84a.12.12,0,0,1-.15,0,.3.3,0,0,1-.06-.2v-.88a.66.66,0,0,1,.06-.27.35.35,0,0,1,.15-.18Z" style="fill:#455a64"></path><path d="M147.12,245.09c-.11.06-.19.06-.23,0l-.11-.13-1.27-2-1.27,3.46-.1.24a.53.53,0,0,1-.23.26l-.68.39a.12.12,0,0,1-.15,0,.3.3,0,0,1-.06-.2,1,1,0,0,1,0-.15l1.84-5-1.76-2.75a.5.5,0,0,1,0-.12.66.66,0,0,1,.06-.27.52.52,0,0,1,.16-.19l.67-.39c.1-.06.18-.06.23,0l.1.13,1.21,1.9,1.2-3.29.11-.25a.58.58,0,0,1,.23-.26l.67-.38a.11.11,0,0,1,.15,0,.22.22,0,0,1,.07.19.4.4,0,0,1,0,.15l-1.76,4.83,1.81,2.84a.27.27,0,0,1,0,.12.68.68,0,0,1-.07.27.42.42,0,0,1-.15.19Z" style="fill:#455a64"></path><path d="M152.53,233.33a.12.12,0,0,1,.15,0,.3.3,0,0,1,.07.2v.88a.68.68,0,0,1-.07.27.35.35,0,0,1-.15.18l-1.44.84v6.75a.54.54,0,0,1-.07.27.42.42,0,0,1-.15.19l-.65.37a.11.11,0,0,1-.15,0,.27.27,0,0,1-.06-.2v-6.75l-1.44.83a.12.12,0,0,1-.16,0,.28.28,0,0,1-.06-.2v-.87a.66.66,0,0,1,.06-.27.45.45,0,0,1,.16-.19Z" style="fill:#455a64"></path></g></g><g id="freepik--Plant--inject-17"><g id="freepik--Plants--inject-17"><path d="M107,418.69l7.2-4.16s4.28-17.79,2.57-33.79c-2.4-22.51-17.21-31-22.84-29s-7.27,8.49,2,21.9C101.49,381.51,108.25,398,107,418.69Z" style="fill:#BA68C8"></path><g style="opacity:0.30000000000000004"><path d="M107,418.69l7.2-4.16s4.28-17.79,2.57-33.79c-2.4-22.51-17.21-31-22.84-29s-7.27,8.49,2,21.9C101.49,381.51,108.25,398,107,418.69Z" style="fill:#fff"></path></g><path d="M110,410h-.07a.5.5,0,0,1-.4-.58c3.94-20.76-3.31-44.08-12.29-53.79a.5.5,0,1,1,.73-.68c9.15,9.88,16.54,33.59,12.54,54.66A.5.5,0,0,1,110,410Z" style="fill:#fff"></path><path d="M88.91,429.14c-1.07.55-3.93-1.89-4.73-2.49a10,10,0,0,1-3.12-4,9.35,9.35,0,0,1-.55-5.65,23.17,23.17,0,0,1,.86-2.95l1-2.85a7.32,7.32,0,0,0,.57-2.9c-.15-2-1.84-3.47-3.38-4.75-1.7-1.41-3.45-3.25-3.32-5.63a8.43,8.43,0,0,1,2.35-4.89c1.21-1.39,2.63-2.59,3.74-4.07a5.87,5.87,0,0,0,1.39-3.64A6.14,6.14,0,0,0,83,383a33.1,33.1,0,0,1-2.29-4.77c-.5-1.7-.31-3.77,1.05-4.9a5.48,5.48,0,0,1,4.15-.81,9.32,9.32,0,0,1,3.75,1.53c3.68,2.3,5.61,6.89,9.55,8.71a40.88,40.88,0,0,0,4.8,1.44,6,6,0,0,1,3.87,2.94c1.32,3-1.59,6.51-.72,9.69.78,2.81,3.42,4,4.8,6.58a5.87,5.87,0,0,1,.52,3.65,17.5,17.5,0,0,1-1.83,6.05,53.92,53.92,0,0,1-3.64,5.58S89.07,429.06,88.91,429.14Z" style="fill:#BA68C8"></path><g style="opacity:0.65"><path d="M88.91,429.14c-1.07.55-3.93-1.89-4.73-2.49a10,10,0,0,1-3.12-4,9.35,9.35,0,0,1-.55-5.65,23.17,23.17,0,0,1,.86-2.95l1-2.85a7.32,7.32,0,0,0,.57-2.9c-.15-2-1.84-3.47-3.38-4.75-1.7-1.41-3.45-3.25-3.32-5.63a8.43,8.43,0,0,1,2.35-4.89c1.21-1.39,2.63-2.59,3.74-4.07a5.87,5.87,0,0,0,1.39-3.64A6.14,6.14,0,0,0,83,383a33.1,33.1,0,0,1-2.29-4.77c-.5-1.7-.31-3.77,1.05-4.9a5.48,5.48,0,0,1,4.15-.81,9.32,9.32,0,0,1,3.75,1.53c3.68,2.3,5.61,6.89,9.55,8.71a40.88,40.88,0,0,0,4.8,1.44,6,6,0,0,1,3.87,2.94c1.32,3-1.59,6.51-.72,9.69.78,2.81,3.42,4,4.8,6.58a5.87,5.87,0,0,1,.52,3.65,17.5,17.5,0,0,1-1.83,6.05,53.92,53.92,0,0,1-3.64,5.58S89.07,429.06,88.91,429.14Z" style="fill:#fff"></path></g><path d="M99.32,423.72h0a.47.47,0,0,1-.43-.52c1.72-18.67-6.06-39.77-12.16-46.09a.47.47,0,0,1,.68-.66c6.23,6.45,14.16,27.91,12.42,46.84A.49.49,0,0,1,99.32,423.72Z" style="fill:#fff"></path><path d="M97.47,400.7l-.14,0a63.89,63.89,0,0,0-13.47-2.88.47.47,0,1,1,.09-.94,65,65,0,0,1,13.7,2.93.47.47,0,0,1,.28.61A.46.46,0,0,1,97.47,400.7Z" style="fill:#fff"></path></g></g><g id="freepik--Character--inject-17"><g id="freepik--character--inject-17"><g id="freepik--Bottom--inject-17"><path d="M379,360.3c-.27-4.18-2.71-46.38-2.71-46.38l20.17,15.19c-3.23,24.14-4.27,30.79-4.39,34.81h0a5.06,5.06,0,0,0-.14.86c-.07,4.78-5.49,7.3-9.74,10.44a78.2,78.2,0,0,1-11.47,7.31c-3.07,1.51-9.28,1.58-10-.4,5.16-3.85,11.14-8.07,15.26-12.49C378,367.53,379.36,365.32,379,360.3Z" style="fill:#ffa8a7"></path><path d="M351.93,387.18c-.26,0-.69,2.89.72,4.14,1.63,1.44,6.44,3.82,12.84,3.06s9.88-2.69,12.46-4.81,6.19-5.09,9.09-5.69c2.69-.57,5.61-1.75,6.48-2.57s.79-4.51.79-4.51Z" style="fill:#263238"></path><path d="M392.15,362.62s.57,0,.72.83c.19,1,.37,4,.78,5.65a29.93,29.93,0,0,1,.53,9c-.38,1.88-4.77,3.15-7.57,4.18a35.57,35.57,0,0,0-9.12,5.63c-3,2.44-9.37,4.86-13.54,4.87-6.35,0-10.45-1.74-11.7-4-1.54-2.84-.29-4.47,7.05-7.77,1.39-.63,6.28-3.45,7.94-4.47,4.51-2.77,9-6.65,11.11-11.62a2.73,2.73,0,0,1,1.06-1.51,2.29,2.29,0,0,1,1.42-.11,12,12,0,0,1,3.51,1.09c1,.48,2.36,1,2.32,2.3a4,4,0,0,1-.29,1.27c-.09.25-.16.59.06.75s.5,0,.69-.19a17.94,17.94,0,0,0,2-2.34,7.13,7.13,0,0,1,1.17-1.16,12.27,12.27,0,0,0,1.26-.8A2.07,2.07,0,0,0,392.15,362.62Z" style="fill:#37474f"></path><path d="M358.12,381.48c9.19.74,12,6.45,12.38,10a21.56,21.56,0,0,1-6.55,1.3c-6.35,0-10.71-1.74-12-4C350.54,386,351.57,383.89,358.12,381.48Z" style="fill:#fafafa"></path><path d="M371.91,381.72a.45.45,0,0,0,.29-.09.47.47,0,0,0,.07-.64,10.87,10.87,0,0,0-8.29-3.37.45.45,0,0,0-.4.5.44.44,0,0,0,.49.4,10,10,0,0,1,7.49,3A.44.44,0,0,0,371.91,381.72Z" style="fill:#f0f0f0"></path><path d="M375.9,379.46a.42.42,0,0,0,.28-.1.44.44,0,0,0,.07-.63,10.75,10.75,0,0,0-8.28-3.37.45.45,0,0,0-.41.49.45.45,0,0,0,.5.4,10,10,0,0,1,7.49,3A.46.46,0,0,0,375.9,379.46Z" style="fill:#f0f0f0"></path><path d="M379.6,376.86a.42.42,0,0,0,.28-.1.44.44,0,0,0,.07-.63,10.83,10.83,0,0,0-8.28-3.37.45.45,0,0,0-.41.49.45.45,0,0,0,.5.4,10.06,10.06,0,0,1,7.49,3A.46.46,0,0,0,379.6,376.86Z" style="fill:#f0f0f0"></path><path d="M383.22,374.26a.47.47,0,0,0,.28-.09.44.44,0,0,0,.08-.63c-1.74-2.25-5.7-3.76-9.05-3.43a.45.45,0,0,0,.09.9c3-.3,6.71,1.09,8.25,3.08A.46.46,0,0,0,383.22,374.26Z" style="fill:#f0f0f0"></path><path d="M419.32,328.8l20.14-2.4c1.06,13.5.42,28.67,1.34,41.34.17,2.39,1.92,18.48,1.51,23.47-.61,7.49-9.43,7.37-10.34,3s-3.1-23.37-3.32-25.31c-.74-8.11-4.59-21.3-8-35.65C420.44,332.56,419.48,329.49,419.32,328.8Z" style="fill:#ffa8a7"></path><path d="M429,397.62c.25,4.34.93,7.22,2.47,9.77s4.44,3.34,7.38,2.59,6.71-2.73,7.56-6.48.67-6.31,0-10.33Z" style="fill:#263238"></path><path d="M440.7,366.19c1.21.1,1.57,5.93,2.26,11.76.75,6.26,2.62,8.84,3.29,14,.76,5.86.46,8.48-1.6,12s-9.32,7-12.9,1.94c-2.92-4.13-3-8.72-2.77-14.57a130.57,130.57,0,0,0-.39-14.82c-.24-4.39-1.21-8.81-.16-9.3.09.64.16,1.46.25,2.09s.19,2.86.87,2.88a9.09,9.09,0,0,0,0-1.65,2,2,0,0,1,.33-1.41,2.27,2.27,0,0,1,1.35-.6c1.19-.24,3.72-.35,4.93-.46.61-.05,1.21-.08,1.82-.07a4.65,4.65,0,0,1,1.53.22,1.08,1.08,0,0,1,.66.59,1.89,1.89,0,0,1,.06.67,4.81,4.81,0,0,0,.15,1.2c.05.18.17.39.34.35a.35.35,0,0,0,.2-.36c0-.71-.09-1.22-.12-2,0-.38-.08-.9-.08-1.28S440.72,366.57,440.7,366.19Z" style="fill:#37474f"></path><path d="M446.59,395.31c.21,3.64,0,6.13-1.61,8.91-2.05,3.54-9.9,7-13.49,1.95-1.78-2.52-2.26-5.51-2.5-8.55C431.14,393.71,443.2,392,446.59,395.31Z" style="fill:#fafafa"></path><path d="M432.1,391.25l.15,0a17.6,17.6,0,0,1,10.46-1.08.45.45,0,0,0,.2-.88,18.34,18.34,0,0,0-11.05,1.15.45.45,0,0,0-.21.6A.45.45,0,0,0,432.1,391.25Z" style="fill:#f0f0f0"></path><path d="M442.41,385.76a.46.46,0,0,0,.38-.3.44.44,0,0,0-.28-.57c-5.43-1.84-10.8.92-11,1a.45.45,0,0,0-.19.61.46.46,0,0,0,.61.19c.05,0,5.26-2.71,10.32-1A.41.41,0,0,0,442.41,385.76Z" style="fill:#f0f0f0"></path><path d="M442.1,381.64a.43.43,0,0,0,.38-.29.46.46,0,0,0-.27-.58,14,14,0,0,0-11.26,1,.45.45,0,0,0,.47.77,13.27,13.27,0,0,1,10.48-.93A.47.47,0,0,0,442.1,381.64Z" style="fill:#f0f0f0"></path><path d="M441.73,377a.48.48,0,0,0,.38-.29.46.46,0,0,0-.27-.58c-5.6-2.1-11.1,1-11.33,1.13a.45.45,0,0,0-.16.62.44.44,0,0,0,.61.16c.05,0,5.37-3,10.57-1.07A.35.35,0,0,0,441.73,377Z" style="fill:#ebebeb"></path><path d="M426.37,192.7c3.87,8.87,8.05,15.08,8.55,31.8,1.06,35.53,1.49,60.81,1.49,60.81.23,3.13,2.74,8.68,3.88,24.92,1,14.21.65,33.69.65,33.69s-9.75,4.84-18.13,1.43c-3.34-11.55-8.6-41.82-12.24-57.29-3.3-14-6.57-34.61-6.57-34.61l-5.3,34.8s1,13.94.53,22.16c-.54,9.55-5,36.34-5,36.34s-9.85,4-17.05-1.32c0,0-3.87-47.87-3.95-59.37-.15-22.57-.5-72,4.64-93.9Z" style="fill:#37474f"></path><path d="M441.38,340.54c-3.42,2.15-15.17,3.82-19.82,2.08l1.31,5.46s3,1.23,9.44.87,8.9-3,8.9-3Z" style="fill:#455a64"></path><path d="M395.21,342.08c-3.66,1.68-14.34,1.39-18.72-.93l.6,5.59s2.09,2.39,8.51,2.51,8.75-1.86,8.75-1.86Z" style="fill:#455a64"></path><path d="M404,253.45l-3.88-25.1s-15-1.77-20.42-7c0,0,6.87,9.69,17,11.28l4.27,20.8L398.74,288Z" style="fill:#263238"></path></g><g id="freepik--Top--inject-17"><g id="freepik--Arm--inject-17"><path d="M326.67,137.42l24.15,16.18s6.48-3.38,12.1-6.63c16.51-9.55,18.81-11.34,29.33-10.61l-1.86,17.9c-8.35,4.82-22.52,11.46-32.86,16.16-6.25,2.85-9.23,3.13-14.34-1.26-6.44-5.53-7.66-6.57-13.62-11.83-7.09-6.27-10.68-10-10.68-10Z" style="fill:#ffa8a7"></path><path d="M392.25,136.36c-6.4-.82-9.32-.45-16.47,2.49s-13.44,5.27-13.44,5.27-2.16,15.79,10.07,22.33l20-11.44Z" style="fill:#BA68C8"></path><path d="M392.25,136.36c-6.4-.82-9.32-.45-16.47,2.49s-13.44,5.27-13.44,5.27-2.16,15.79,10.07,22.33l20-11.44Z" style="opacity:0.2"></path><path d="M330.21,140.2c-5.09-4-6.59-4.73-6.39-9s.29-5.38,0-6.36-3.39-5.26-4.22-7.31-1.6-2.42-3.46-2.73-5.88-.89-7-1.27a2.65,2.65,0,0,0,1.41,3.5c1.09.58,2.64,1.44,2.64,1.44s-1.54,1.68-2.28,2.39-.63,1.32.24,3.79c0,0-1.15.44-1.36,1.31a5.15,5.15,0,0,0,.32,2.62,2.35,2.35,0,0,0-1.11,1.05c-.38.75.19,2.81.94,4.57.6,2.11.62,4.89,1.28,6.65s2.24,3,5,4.66a115.78,115.78,0,0,1,9.37,7.31S335.13,144.05,330.21,140.2Z" style="fill:#ffa8a7"></path><path d="M321.36,125.54a8,8,0,0,1-2.87-4.32c-.38-1.7-.7-3.62-1.26-3.66-.93-.08-2.79,1.64-2.41,4.48s1.5,5.89,1.55,6.67a12.38,12.38,0,0,1-1.32,4,7.38,7.38,0,0,0,2.09,8.21,6.8,6.8,0,0,1-3.26-3.91c-1.15-3,.77-5.94,1.2-7.36s.51-1.7-.25-4.19-1.61-5.18.4-7.48,2.83-1.12,3.12-.3S319,123.6,321.36,125.54Z" style="fill:#f28f8f"></path><path d="M313.18,118.45l1.69.94-.58.42a2.26,2.26,0,0,0-2.42,0Z" style="fill:#f28f8f"></path><path d="M311.14,124.63c.27.82,1.23,3.32,1.42,3.83s1.15.39,1.75-.53a3.57,3.57,0,0,0,.68-2.54,3.86,3.86,0,0,1-.28,2.75c-.73,1.21-1.63,1.33-2.17,1.14S311.72,126.38,311.14,124.63Z" style="fill:#f28f8f"></path><path d="M310.1,128.56c.19.62.59,1.42,1.14,3.12.32,1,.49,1.63,1.09,1.58a2.55,2.55,0,0,0,1.61-2.45,8.74,8.74,0,0,0-.38-2l.49-.19a6.82,6.82,0,0,1,.34,3.21c-.32,1.41-1.73,2.45-2.34,2.06s-.76-1-1.16-2.39S310.1,128.56,310.1,128.56Z" style="fill:#f28f8f"></path><path d="M311.87,133.38c.08.41-.18,1.33-.86,1.32a1.43,1.43,0,0,1-1.08-.52,1.22,1.22,0,0,0,1.14.89c.83,0,1.26-.82,1.42-1.53Z" style="fill:#f28f8f"></path></g><g id="freepik--Chest--inject-17"><path d="M419.07,92.28c5.7,1.24,7.11,7.92,7.36,16.48s.57,25.54-15.66,27.85-4-5.61-11.15-9.62S389.17,115.27,384,112.3s-7.85-17.72,5.59-25.43C398.68,81.63,416.49,80.78,419.07,92.28Z" style="fill:#455a64"></path><path d="M387.76,95s-4.31,5.16-3.76,19.62c.46,12,2.63,14.84,5.93,16.24,2,.83,5.13,1,8.83.61l0,5.18s-10.51,9.48-2.16,11.08c4.17.8,9.39-.55,13.13-3.15a27.83,27.83,0,0,0,5.63-4.93l0-16.16s2.5,2.07,6.36-.9c3.18-2.44,4.48-6.83,2.27-9.37a5.44,5.44,0,0,0-8.65,1.11s-3.3,1.32-3-3.14c0,0-7.92-3-5-15.15-2.86-1.76-7.48,3-12.25,3.34C392.56,99.54,389.55,95.25,387.76,95Z" style="fill:#ffa8a7"></path><path d="M400.83,119.32l-5.38,2.26a2.87,2.87,0,0,0,3.78,1.67A3.07,3.07,0,0,0,400.83,119.32Z" style="fill:#b16668"></path><path d="M400.36,120.82a2.48,2.48,0,0,0-2.48,2.48.68.68,0,0,0,0,.14,2.8,2.8,0,0,0,1.33-.19,3,3,0,0,0,1.77-2.33A2.31,2.31,0,0,0,400.36,120.82Z" style="fill:#f28f8f"></path><path d="M386.69,106l3.57-1.07a1.78,1.78,0,0,0-2.25-1.28A2,2,0,0,0,386.69,106Z" style="fill:#37474f"></path><path d="M402.09,105.21l3.39,1.55a1.78,1.78,0,0,0-.85-2.45A2,2,0,0,0,402.09,105.21Z" style="fill:#37474f"></path><polygon points="395.21 108.18 395.09 118.34 389.55 117.57 395.21 108.18" style="fill:#f28f8f"></polygon><path d="M398.76,131.45c8.44-1.23,12.4-3.75,13.84-6.81,0,0-.57,3.92-3.24,5.55a28.23,28.23,0,0,1-10.58,3.34Z" style="fill:#f28f8f"></path><path d="M390.38,109.63a1.71,1.71,0,0,1-1.49,1.85,1.61,1.61,0,0,1-1.82-1.44,1.71,1.71,0,0,1,1.5-1.84A1.6,1.6,0,0,1,390.38,109.63Z" style="fill:#263238"></path><path d="M402.82,109.76a1.72,1.72,0,0,1-1.5,1.85,1.61,1.61,0,0,1-1.81-1.44,1.72,1.72,0,0,1,1.5-1.85A1.6,1.6,0,0,1,402.82,109.76Z" style="fill:#263238"></path><path d="M398.8,136.63s-3.41,3,.28,4.49,12.91-.48,16.32-3.77c0,0,6.41,2.11,10.92,3.51,2.5.77,1.72,10.21.72,19.46a105.44,105.44,0,0,0,1.62,32.73c-10.53,11.87-47.34,6.28-52.71-.34,0,0,.61-10.42.94-16.5,0,0-5.89-4.61-6.28-10.57-.4-6.25,2.61-10.61,8.38-17.56,5-6,13.26-11.72,13.26-11.72Z" style="fill:#BA68C8"></path><path d="M414.05,173.35a13.18,13.18,0,0,1-12.7,6.61,13.89,13.89,0,0,1-11.6-7.71s.09,9.7,11.54,10S414.05,173.35,414.05,173.35Z" style="opacity:0.2"></path><path d="M415.38,131.77c0,3.4.16,5.64,3.9,6.85-2.54,4.4-11.83,6.25-19.78,4.62s-4-6.75-4-6.75c2.2,0,3.29-1.13,3.29-2.86Z" style="fill:#ffa8a7"></path><path d="M415.36,123.47c0,2.48.9,10.06-5.87,11.5,3.31,2.13,9.28.74,13.19-5.54Z" style="fill:#455a64"></path></g><g id="freepik--arm--inject-17"><path d="M426.32,140.86c8.55,2.38,11.86,4.66,14.2,11,3.06,8.23,8.83,28.07,10.93,37.68,1.13,5.16,2.27,8.65-1.86,12.37a241,241,0,0,1-23.17,17.79c-1.72,1.14-6.25,5.35-7.89,6.21-10,5.23-21.49,3.87-21.49,3.87L408,223.13l2-3.7,23.41-24.65s-8.52-23.47-10.58-29.72S419.75,144.77,426.32,140.86Z" style="fill:#ffa8a7"></path><path d="M433.33,194.78a11.9,11.9,0,0,1,7.69-3.16s-3.38-1.63-8.47,1Z" style="fill:#f28f8f"></path><path d="M417.94,214.36l0,1a2.85,2.85,0,0,1-1.39,2.54l-27.26,16.5a2.87,2.87,0,0,1-1.44.42,3,3,0,0,1-1.45-.35l-51.31-28.13a2.9,2.9,0,0,1-1.5-2.48l0-.71,54.24,29.74Z" style="fill:#BA68C8"></path><g style="opacity:0.5"><path d="M417.94,214.36l0,1a2.85,2.85,0,0,1-1.39,2.54l-27.26,16.5a2.87,2.87,0,0,1-1.44.42,3,3,0,0,1-1.45-.35l-51.31-28.13a2.9,2.9,0,0,1-1.5-2.48l0-.71,54.24,29.74Z" style="fill:#fff"></path></g><g style="opacity:0.1"><path d="M417.94,214.36l0,1a2.85,2.85,0,0,1-1.39,2.54l-27.26,16.5a2.87,2.87,0,0,1-1.44.42,3,3,0,0,1-1.45-.35l-51.31-28.13a2.9,2.9,0,0,1-1.5-2.48l0-.71,54.24,29.74Z"></path></g><path d="M333.59,203.17l29.66-18a1.73,1.73,0,0,1,1.72,0l52.77,28.94a.39.39,0,0,1,0,.67l-29.93,18.17Z" style="fill:#BA68C8"></path><g style="opacity:0.85"><path d="M333.59,203.17l29.66-18a1.73,1.73,0,0,1,1.72,0l52.77,28.94a.39.39,0,0,1,0,.67l-29.93,18.17Z" style="fill:#fff"></path></g><polygon points="387.57 230.09 403.57 220.39 356.07 194.35 339.99 204.01 387.57 230.09" style="fill:#BA68C8"></polygon><g style="opacity:0.6000000000000001"><polygon points="387.57 230.09 403.57 220.39 356.07 194.35 339.99 204.01 387.57 230.09" style="fill:#fff"></polygon></g><polygon points="395.44 204.19 395.14 204.37 387.3 209.13 373 201.29 372.7 201.13 380.84 196.19 395.44 204.19" style="fill:#BA68C8"></polygon><polygon points="395.14 204.37 387.3 209.13 373 201.29 380.85 196.53 395.14 204.37" style="fill:#BA68C8"></polygon><g style="opacity:0.6000000000000001"><polygon points="395.14 204.37 387.3 209.13 373 201.29 380.85 196.53 395.14 204.37" style="fill:#fff"></polygon></g><path d="M387.83,232.91l0,1.93a3,3,0,0,1-1.45-.35l-51.31-28.13a2.9,2.9,0,0,1-1.5-2.48l0-.71Z" style="fill:#BA68C8"></path><g style="opacity:0.03"><path d="M387.83,232.91l0,1.93a3,3,0,0,1-1.45-.35l-51.31-28.13a2.9,2.9,0,0,1-1.5-2.48l0-.71Z" style="fill:#fff"></path></g><g style="opacity:0.2"><path d="M387.83,232.91l0,1.93a3,3,0,0,1-1.45-.35l-51.31-28.13a2.9,2.9,0,0,1-1.5-2.48l0-.71Z"></path></g><path d="M387,233.36a3.46,3.46,0,0,1-3-.16l-51.08-28a3.44,3.44,0,0,1-1.72-2.36L325,170a3.54,3.54,0,0,1,.91-3L379,196.11a2.53,2.53,0,0,1,1.28,1.75Z" style="fill:#BA68C8"></path><g style="opacity:0.4"><path d="M387,233.36a3.46,3.46,0,0,1-3-.16l-51.08-28a3.44,3.44,0,0,1-1.72-2.36L325,170a3.54,3.54,0,0,1,.91-3L379,196.11a2.53,2.53,0,0,1,1.28,1.75Z" style="fill:#fff"></path></g><path d="M387.83,232.91l-.34.21a4.16,4.16,0,0,1-.47.24l-6.75-35.5a2.53,2.53,0,0,0-1.28-1.75L325.92,167a3.34,3.34,0,0,1,.68-.55l53.19,29.16a2.56,2.56,0,0,1,1.27,1.75Z" style="fill:#BA68C8"></path><g style="opacity:0.6000000000000001"><path d="M387.83,232.91l-.34.21a4.16,4.16,0,0,1-.47.24l-6.75-35.5a2.53,2.53,0,0,0-1.28-1.75L325.92,167a3.34,3.34,0,0,1,.68-.55l53.19,29.16a2.56,2.56,0,0,1,1.27,1.75Z" style="fill:#fff"></path></g><path d="M379.77,196.78l.8-.49a2.44,2.44,0,0,1,.49,1.07l6.77,35.55-.34.21a4.16,4.16,0,0,1-.47.24l-6.75-35.5A2.61,2.61,0,0,0,379.77,196.78Z" style="fill:#BA68C8"></path><path d="M379.77,196.78l.8-.49a2.44,2.44,0,0,1,.49,1.07l6.77,35.55-.34.21a4.16,4.16,0,0,1-.47.24l-6.75-35.5A2.61,2.61,0,0,0,379.77,196.78Z" style="fill:#fff;opacity:0.5"></path><path d="M379.77,196.78l.8-.49a2.44,2.44,0,0,1,.49,1.07l6.77,35.55-.34.21a4.16,4.16,0,0,1-.47.24l-6.75-35.5A2.61,2.61,0,0,0,379.77,196.78Z" style="opacity:0.1"></path><path d="M357.94,203.59c-.41-2.2-2.75-5.08-5.22-6.43s-4.13-.67-3.72,1.53,2.76,5.07,5.23,6.42S358.36,205.79,357.94,203.59Z" style="fill:#BA68C8"></path><path d="M418.93,211.44c-2.85,2-6.7.39-10.49.85s-7,1.39-10.08,1.3-4.54.53-2.41,3,8.24,1,9.89,1.78a3.54,3.54,0,0,1,.77,5.61c-1.79,2.08,10.18-1.93,11.77-4.4S421.1,211.76,418.93,211.44Z" style="fill:#ffa8a7"></path><path d="M426.32,140.86c5.76,1.13,8.14,2.45,11.14,4.85s11.84,22.75,11.84,22.75-5.12,7.21-22.62,9.92c0,0-5.06-13.3-6.07-17.53S418.21,144.08,426.32,140.86Z" style="fill:#BA68C8"></path><path d="M426.32,140.86c5.76,1.13,8.14,2.45,11.14,4.85s11.84,22.75,11.84,22.75-5.12,7.21-22.62,9.92c0,0-5.06-13.3-6.07-17.53S418.21,144.08,426.32,140.86Z" style="opacity:0.2"></path></g></g></g></g><g id="freepik--text-icon--inject-17"><g id="freepik--T--inject-17"><path d="M105.71,72.75V93.33l-1.87,1V87.88c0-3.49-2.85-4.69-6.36-2.66l-8.73,5v37.11c0,4,2.48,5.91,5.54,4.14l5.42-3.13.06,0,5.94,3.43L76,148.92l-4-2.31-1.93,1.11v-2.23l5.48-3.16c3.06-1.76,5.54-6.48,5.54-10.54V94.69l-8.73,5c-3.51,2-6.36,6.5-6.36,10v6.48l-1.87,1.12V96.75Z" style="fill:#BA68C8"></path><path d="M105.71,72.75V93.33l-1.87,1V87.88c0-3.49-2.85-4.69-6.36-2.66l-8.73,5v37.11c0,4,2.48,5.91,5.54,4.14l5.42-3.13.06,0,5.94,3.43L76,148.92l-4-2.31-1.93,1.11v-2.23l5.48-3.16c3.06-1.76,5.54-6.48,5.54-10.54V94.69l-8.73,5c-3.51,2-6.36,6.5-6.36,10v6.48l-1.87,1.12V96.75Z" style="fill:#fff;opacity:0.2"></path><polygon points="109.78 97.8 103.84 94.37 103.84 84.12 109.78 85.25 109.78 97.8" style="fill:#BA68C8"></polygon><path d="M111.65,76.18V96.75l-1.87,1V91.31c0-3.5-2.85-4.69-6.36-2.66l-8.73,5V130.8c0,4,2.48,5.91,5.54,4.14l5.48-3.16V134L76,151.15v-2.23l5.48-3.16C84.55,144,87,139.27,87,135.22V98.11l-8.73,5c-3.51,2-6.36,6.51-6.36,10v6.48l-1.87,1.12V100.18Z" style="fill:#BA68C8"></path><path d="M111.65,76.18V96.75l-1.87,1V91.31c0-3.5-2.85-4.69-6.36-2.66l-8.73,5V130.8c0,4,2.48,5.91,5.54,4.14l5.48-3.16V134L76,151.15v-2.23l5.48-3.16C84.55,144,87,139.27,87,135.22V98.11l-8.73,5c-3.51,2-6.36,6.51-6.36,10v6.48l-1.87,1.12V100.18Z" style="fill:#fff;opacity:0.5"></path><polygon points="105.71 72.75 111.65 76.18 70.07 100.18 64.13 96.75 105.71 72.75" style="fill:#BA68C8"></polygon><polygon points="105.71 72.75 111.65 76.18 70.07 100.18 64.13 96.75 105.71 72.75" style="fill:#fff;opacity:0.7000000000000001"></polygon><polygon points="64.13 96.75 70.07 100.18 70.07 120.76 64.13 117.33 64.13 96.75" style="fill:#BA68C8"></polygon><polygon points="64.13 96.75 70.07 100.18 70.07 120.76 64.13 117.33 64.13 96.75" style="fill:#fff;opacity:0.2"></polygon><polygon points="70.07 145.5 76.01 148.92 76.01 151.15 70.07 147.72 70.07 145.5" style="fill:#BA68C8"></polygon></g></g><g id="freepik--Folder--inject-17"><g id="freepik--folder--inject-17"><path d="M131.12,110.81a1.25,1.25,0,0,1-.61-.17,1.19,1.19,0,0,1-.6-1V60.19a2.89,2.89,0,0,1,.41-1.43,3.06,3.06,0,0,1,1-1.08l14.78-8.52a1.53,1.53,0,0,1,1.57-.06,1.7,1.7,0,0,1,.76,1l1.19,4a.6.6,0,0,0,.34.41.61.61,0,0,0,.53-.07l34.75-20a1.31,1.31,0,0,1,1.24-.14l.16.08a1.36,1.36,0,0,1,.56,1.18V76.93a3.17,3.17,0,0,1-1.45,2.51l-54.05,31.2A1.22,1.22,0,0,1,131.12,110.81ZM147,49.92a.77.77,0,0,0-.34.1l-14.77,8.53a2,2,0,0,0-.67.71,1.94,1.94,0,0,0-.28.93v49.4a.21.21,0,0,0,.11.18.19.19,0,0,0,.21,0l54.05-31.2a2.17,2.17,0,0,0,.94-1.64V35.48a.5.5,0,0,0-.08-.33l-.07,0a.79.79,0,0,0-.3.1L151,55.27a1.54,1.54,0,0,1-2.33-.92l-1.19-4a.64.64,0,0,0-.28-.37A.45.45,0,0,0,147,49.92Z" style="fill:#e0e0e0"></path></g><g id="freepik--folder--inject-17"><path d="M194.17,39.92a.86.86,0,0,0-.33-.76h0l-2.23-1.3h0a.85.85,0,0,0-.84.09L156.35,57.75l-.93-3.09a1.1,1.1,0,0,0-.5-.66h0l-2.26-1.31h0a1.06,1.06,0,0,0-1.1,0L136.8,61.25a2.68,2.68,0,0,0-1.2,2.08v49.25a.84.84,0,0,0,.33.76h0l0,0h0l2.23,1.29,0,0h0a.86.86,0,0,0,.82-.09L193,83.45a2.67,2.67,0,0,0,1.2-2.08Z" style="fill:#e6e6e6"></path><path d="M154.89,54a1.06,1.06,0,0,0-1.07.05l-14.77,8.52a2.63,2.63,0,0,0-.85.9L136,62.15a2.46,2.46,0,0,1,.85-.9l14.77-8.52a1.09,1.09,0,0,1,1.1,0h0Z" style="fill:#f0f0f0"></path><path d="M193.75,39.11a.89.89,0,0,0-.78.12L158.22,59.28a1.06,1.06,0,0,1-1.61-.64l-.26-.89,34.37-19.82a1.06,1.06,0,0,1,.53-.17.65.65,0,0,1,.31.08h0Z" style="fill:#f0f0f0"></path><path d="M138,114.49a.49.49,0,0,0,.12.13L136,113.37h0l0,0a.57.57,0,0,1-.2-.23.59.59,0,0,1-.06-.14,1.14,1.14,0,0,1-.06-.39V63.19c0-.1,0-.2.05-.3s0-.1,0-.15a4.22,4.22,0,0,1,.18-.45s0-.1.08-.14l2.25,1.3a2.51,2.51,0,0,0-.35,1.18v49.26a1.49,1.49,0,0,0,0,.21.43.43,0,0,0,0,.11l0,.06,0,.08A.64.64,0,0,0,138,114.49Z" style="opacity:0.15"></path></g></g><g id="freepik--text-cursor--inject-17"><g id="freepik--text-cursor--inject-17"><path id="freepik--Selection--inject-17" d="M182.32,427.9l-2.3-1.33a.44.44,0,0,0-.44.77l2.3,1.32a.43.43,0,0,0,.22.06.44.44,0,0,0,.22-.82Zm6.13,3.54-2.3-1.33a.44.44,0,0,0-.6.16.45.45,0,0,0,.16.61l2.3,1.32a.43.43,0,0,0,.22.06.44.44,0,0,0,.22-.82Zm-1.59-38.9a.42.42,0,0,0-.6-.16L184,393.7a.45.45,0,0,0,.22.83.46.46,0,0,0,.22-.06l2.3-1.33A.44.44,0,0,0,186.86,392.54Zm13.41,33.25-2.3,1.33a.44.44,0,0,0-.16.6.43.43,0,0,0,.6.17l2.3-1.33a.44.44,0,0,0-.44-.77Zm-1.15-40.33a.42.42,0,0,0-.6-.16l-2.3,1.32a.45.45,0,0,0,.22.83.43.43,0,0,0,.22-.06l2.3-1.33A.43.43,0,0,0,199.12,385.46ZM193,389a.42.42,0,0,0-.6-.16l-2.3,1.32a.45.45,0,0,0-.16.61.44.44,0,0,0,.38.22.43.43,0,0,0,.22-.06l2.3-1.33A.44.44,0,0,0,193,389Zm1.15,40.33-2.3,1.33a.45.45,0,0,0,.22.83.46.46,0,0,0,.22-.06l2.3-1.33a.45.45,0,0,0,.16-.61A.44.44,0,0,0,194.14,429.33Zm-13.41-33.25a.43.43,0,0,0-.6-.16l-2.3,1.32a.45.45,0,0,0,.22.83.46.46,0,0,0,.22-.06l2.3-1.33A.44.44,0,0,0,180.73,396.08ZM162.34,406.7a.43.43,0,0,0-.61-.16l-2.3,1.32a.45.45,0,0,0-.16.61.44.44,0,0,0,.39.22.46.46,0,0,0,.22-.06l2.3-1.33A.44.44,0,0,0,162.34,406.7Zm13.85,17.66-2.3-1.33a.45.45,0,0,0-.61.16.45.45,0,0,0,.17.61l2.3,1.32a.35.35,0,0,0,.22.06.44.44,0,0,0,.22-.82ZM157.8,413.74l-2.3-1.33a.45.45,0,0,0-.45.77l2.3,1.33a.46.46,0,0,0,.22.06.43.43,0,0,0,.39-.23A.44.44,0,0,0,157.8,413.74Zm-1.59-3.5a.43.43,0,0,0-.61-.16l-2.3,1.32a.45.45,0,0,0-.16.61.44.44,0,0,0,.39.22.46.46,0,0,0,.22-.06l2.3-1.33A.44.44,0,0,0,156.21,410.24Zm7.72,7-2.3-1.33a.45.45,0,0,0-.45.77l2.3,1.33a.44.44,0,0,0,.22.05.43.43,0,0,0,.39-.22A.44.44,0,0,0,163.93,417.28Zm10.67-17.66a.42.42,0,0,0-.6-.16l-2.3,1.32a.44.44,0,0,0-.17.61.47.47,0,0,0,.39.22.46.46,0,0,0,.22-.06l2.3-1.33A.44.44,0,0,0,174.6,399.62Zm-4.54,21.2-2.3-1.33a.45.45,0,0,0-.61.16.45.45,0,0,0,.16.61l2.3,1.32a.38.38,0,0,0,.23.06.42.42,0,0,0,.38-.22A.44.44,0,0,0,170.06,420.82Zm-1.59-17.66a.44.44,0,0,0-.61-.17l-2.29,1.33a.45.45,0,0,0-.17.61.47.47,0,0,0,.39.22.46.46,0,0,0,.22-.06l2.3-1.33A.44.44,0,0,0,168.47,403.16Zm48.66-24.77a.47.47,0,0,0,.39-.22.45.45,0,0,0-.17-.61l-.41-.23c.67-.58.57-1.36-.31-1.86a3.92,3.92,0,0,0-3.59,0,1.09,1.09,0,0,0,0,2.07,4,4,0,0,0,3,.26l.91.53A.46.46,0,0,0,217.13,378.39Zm19.92,26.16-2.3,1.33a.45.45,0,0,0-.16.61.44.44,0,0,0,.39.22.46.46,0,0,0,.22-.06l2.3-1.33a.44.44,0,0,0,.16-.6A.45.45,0,0,0,237.05,404.55ZM235.52,389a.44.44,0,0,0,.39-.22.45.45,0,0,0-.16-.61l-2.3-1.32a.44.44,0,1,0-.45.76l2.3,1.33A.46.46,0,0,0,235.52,389Zm6.14,3.54a.44.44,0,0,0,.38-.22.45.45,0,0,0-.16-.61l-2.3-1.32a.45.45,0,0,0-.61.16.43.43,0,0,0,.17.6l2.29,1.33A.46.46,0,0,0,241.66,392.55ZM230.92,408.1l-2.3,1.32a.45.45,0,0,0-.16.61.44.44,0,0,0,.39.22.46.46,0,0,0,.22-.06l2.3-1.33a.44.44,0,1,0-.45-.76Zm-25.67-26.18a.43.43,0,0,0-.6-.16l-2.3,1.32a.45.45,0,0,0-.16.61.44.44,0,0,0,.38.22.43.43,0,0,0,.22-.06l2.3-1.33A.43.43,0,0,0,205.25,381.92Zm42.54,14.17a.44.44,0,0,0,.38-.22.45.45,0,0,0-.16-.61l-2.3-1.32a.45.45,0,0,0-.61.16.43.43,0,0,0,.17.6l2.3,1.33A.43.43,0,0,0,247.79,396.09ZM243.18,401l-2.29,1.33a.44.44,0,0,0-.17.61.45.45,0,0,0,.61.16l2.3-1.33a.45.45,0,0,0-.45-.77Zm6.74-3.37a.43.43,0,0,0-.6-.16L247,398.8a.45.45,0,0,0-.17.61.45.45,0,0,0,.61.16l2.3-1.33A.44.44,0,0,0,249.92,397.64Zm-38.54-19.26a.43.43,0,0,0-.6-.16l-2.3,1.32a.45.45,0,0,0-.16.61.44.44,0,0,0,.38.22.43.43,0,0,0,.22-.06l2.3-1.33A.43.43,0,0,0,211.38,378.38Zm1.15,40.33-2.3,1.33a.45.45,0,0,0-.16.61.44.44,0,0,0,.38.22.43.43,0,0,0,.22-.06l2.3-1.33a.44.44,0,0,0-.44-.77Zm-6.13,3.54-2.3,1.33a.45.45,0,0,0-.16.61.44.44,0,0,0,.38.22.43.43,0,0,0,.22-.06l2.3-1.33a.44.44,0,0,0-.44-.77Zm16.86-40.32a.47.47,0,0,0,.39-.22.45.45,0,0,0-.17-.61l-2.29-1.32a.45.45,0,0,0-.61.16.44.44,0,0,0,.16.6l2.3,1.33A.46.46,0,0,0,223.26,381.93Zm1.53,29.7-2.3,1.33a.45.45,0,0,0-.16.61.44.44,0,0,0,.38.22.46.46,0,0,0,.23-.06l2.29-1.33a.43.43,0,0,0,.17-.6A.45.45,0,0,0,224.79,411.63Zm-6.13,3.54-2.3,1.33a.45.45,0,0,0-.16.61.44.44,0,0,0,.38.22.43.43,0,0,0,.22-.06l2.3-1.33a.42.42,0,0,0,.16-.6A.43.43,0,0,0,218.66,415.17Zm10.73-29.7a.44.44,0,0,0,.39-.22.45.45,0,0,0-.16-.61l-2.3-1.32a.44.44,0,1,0-.45.76l2.3,1.33A.46.46,0,0,0,229.39,385.47Z" style="opacity:0.2"></path><path d="M210.76,413.73l-8.12,4.69a2.61,2.61,0,0,1-2.37,0l-4.85-2.8,5.93-3.42c.44-.26.48-.64.1-.86a1.67,1.67,0,0,0-1.49.06L194,414.82l-16-9.23a.72.72,0,0,1,0-1.37l7.42-4.29a.69.69,0,0,0,0-1.2.73.73,0,0,0-.7,0l-8.62,5a.93.93,0,0,0,0,1.6,2.79,2.79,0,0,0-2.77,0l-7.93,4.58a.69.69,0,0,0,0,1.2.73.73,0,0,0,.7,0l8.14-4.7a2.61,2.61,0,0,1,2.37,0l16,9.23-6,3.44c-.44.25-.48.63-.1.85a1.65,1.65,0,0,0,1.48-.05l5.95-3.44,4.85,2.8a.72.72,0,0,1,0,1.37l-7.44,4.3a.69.69,0,0,0,0,1.2.71.71,0,0,0,.69,0l8.62-5a.92.92,0,0,0,.05-1.56,2.82,2.82,0,0,0,2.73,0l7.92-4.57a.7.7,0,0,0-.69-1.21Z" style="opacity:0.2"></path></g><g id="freepik--Arrow--inject-17"><path d="M299.3,386.85l-59.62,4.66a2.46,2.46,0,0,0-2.23,2.42v3.94a3.91,3.91,0,0,0,2,3.22l37.91,18.64a1.49,1.49,0,0,0,2.29-1.23l.77-6.1a2.19,2.19,0,0,1,2.5-1.89l18.22,2.68a4.53,4.53,0,0,0,3.68-1.37l2.76-3.19a7,7,0,0,0,1.47-3.93v-3.94a2.68,2.68,0,0,0-2.22-2.57l-8.57-1.26,1.64-.92a3.9,3.9,0,0,0,1.63-3.15v-3.94A2,2,0,0,0,299.3,386.85Z" style="fill:#BA68C8"></path><path d="M299.3,386.85l-59.62,4.66a2.46,2.46,0,0,0-2.23,2.42v3.94a3.91,3.91,0,0,0,2,3.22l37.91,18.64a1.49,1.49,0,0,0,2.29-1.23l.77-6.1a2.19,2.19,0,0,1,2.5-1.89l18.22,2.68a4.53,4.53,0,0,0,3.68-1.37l2.76-3.19a7,7,0,0,0,1.47-3.93v-3.94a2.68,2.68,0,0,0-2.22-2.57l-8.57-1.26,1.64-.92a3.9,3.9,0,0,0,1.63-3.15v-3.94A2,2,0,0,0,299.3,386.85Z" style="fill:#fff;opacity:0.25"></path><path d="M302.92,404.58V413a4.13,4.13,0,0,1-1.78.21l-18.21-2.68a2.22,2.22,0,0,0-1.31.24v-8.46a2.24,2.24,0,0,1,1.31-.2l18.21,2.68A4.1,4.1,0,0,0,302.92,404.58Z" style="fill:#fff;opacity:0.2"></path><path d="M278.49,411.49v8.42a1.74,1.74,0,0,1-1.13-.18L239.45,401.1a4,4,0,0,1-2-3.23v-3.94a2.5,2.5,0,0,1,1.36-2.18c-.28.23-.06.58.65.93l37.91,18.64A1.79,1.79,0,0,0,278.49,411.49Z" style="fill:#fff;opacity:0.2"></path><path d="M299.3,386.85l-59.62,4.66c-1.24.1-1.34.62-.23,1.17l37.91,18.64a1.5,1.5,0,0,0,2.29-1.24l.77-6.09a2.19,2.19,0,0,1,2.5-1.9l18.22,2.68a4.56,4.56,0,0,0,3.68-1.36l2.76-3.2c.81-.93.47-1.84-.75-2l-18.22-2.68c-1.22-.18-1.34-.82-.26-1.42l11.23-6.31C300.66,387.17,300.53,386.76,299.3,386.85Z" style="fill:#fff;opacity:0.45"></path></g></g></svg>